<svg xmlns="http://www.w3.org/2000/svg" width="181" height="76" viewBox="0 0 181 76" fill="none"><g clip-path="url(#clip0_1002_3964)"><path d="M101.531 4.54917C98.7225 1.74024 94.8314 0 90.5505 0H56.3827V49.7159H68.8067V12.4272H90.435C92.1531 12.4272 93.6619 13.8353 93.6547 15.5538C93.6547 16.4059 93.301 17.1785 92.7451 17.7273C92.1892 18.2905 91.4096 18.6371 90.5505 18.6371H75.0151V31.0643H90.269C98.8596 31.0643 106.129 24.0312 106.079 15.4383C106.05 11.1852 104.317 7.33644 101.531 4.54195M124.523 12.42H112.099V0H124.523V12.4272V12.42ZM50.1671 0V24.8616C50.1671 38.5885 39.0425 49.7159 25.3191 49.7159C11.5957 49.7159 0.463867 38.5885 0.463867 24.8616V0H12.8879V24.8616C12.8879 31.7286 18.4538 37.2887 25.3119 37.2887C32.17 37.2887 37.7359 31.7214 37.7359 24.8616V0H50.1599H50.1671ZM124.523 49.7159H112.099V18.6444H124.523V49.7159Z" fill="#0F3E68"></path><path d="M161.744 0H130.681V12.4272H149.32V31.0715H161.744V0ZM161.744 49.7159H149.32V37.2887H161.744V49.7159Z" fill="#2D77BC"></path><path d="M180.376 0H167.952V12.4272H180.376V0Z" fill="#009C77"></path><path d="M0.600586 75.6821H1.71232V68.4395H0.600586V75.6821ZM8.1806 68.4179V73.1403L3.66147 68.3095H3.60371V75.6821H4.71545V70.9596L9.24902 75.7976H9.29955V68.4106H8.18782L8.1806 68.4179ZM15.4069 69.5515V68.4179H11.1909V75.6893H12.3027V72.6204H14.981V71.4867H12.3027V69.5515H15.4069ZM22.0773 75.6821L20.0126 72.7865C20.8284 72.5193 21.4131 71.7034 21.4131 70.7719C21.4131 69.4793 20.3303 68.4467 19.0164 68.4467H16.8146V75.6893H17.9335V72.8876H18.8071L20.7129 75.6893H22.0845L22.0773 75.6821ZM17.9263 71.9344V69.566H19.0381C19.7022 69.566 20.2653 70.0642 20.2653 70.7358C20.2653 71.4073 19.7094 71.9344 19.0381 71.9272H17.9263V71.9344ZM28.2929 75.6821H29.4985L26.1705 68.2879H26.1055L22.7775 75.6821H23.9831L24.4668 74.5773H27.8164L28.3001 75.6821H28.2929ZM24.8855 73.6025L26.1344 70.7719L27.3761 73.6025H24.8855ZM35.0283 69.5515V68.4323H30.8123V75.6749H35.0283V74.5412H31.9241V72.5338H34.6024V71.4001H31.9241V69.5443H35.0283V69.5515ZM38.7533 75.7976C40.1899 75.7976 41.28 74.9744 41.28 73.6819C41.28 72.541 40.4065 71.9922 39.2947 71.4867C38.4357 71.1112 37.7787 70.9091 37.7787 70.3386C37.7787 69.8259 38.2985 69.4143 38.9482 69.4143C39.4608 69.4143 39.9517 69.6887 40.1682 70.1798L40.9912 69.5949C40.7025 68.8006 39.9445 68.3023 38.9338 68.3023C37.656 68.3023 36.6526 69.1255 36.6526 70.3169C36.6526 71.5084 37.5694 71.8983 38.4068 72.2738C39.2298 72.6421 40.161 73.0465 40.161 73.7108C40.161 74.2596 39.5546 74.6495 38.7605 74.6495C38.0819 74.6495 37.49 74.3246 37.1723 73.7613L36.2988 74.404C36.7031 75.2416 37.5838 75.7976 38.7461 75.7976H38.7533ZM47.1996 68.4323H42.2906V69.5588H44.1893V75.6749H45.3082V69.5588H47.2068V68.4323H47.1996ZM53.87 75.6749L51.8054 72.7793C52.6211 72.5121 53.2059 71.6961 53.2059 70.7646C53.2059 69.4721 52.123 68.4395 50.8091 68.4395H48.6073V75.6821H49.7263V72.8804H50.5926L52.4984 75.6821H53.87V75.6749ZM49.7191 71.9272V69.5588H50.8308C51.4877 69.5588 52.058 70.057 52.058 70.7285C52.058 71.4001 51.495 71.9272 50.8308 71.92H49.7191V71.9272ZM57.4507 75.8121C58.9595 75.8121 60.1289 74.5917 60.1289 72.9309V68.4323H59.01V72.9237C59.01 73.9274 58.3097 74.6567 57.4435 74.6567C56.5772 74.6567 55.8914 73.9202 55.8914 72.9237V68.4323H54.7724V72.9309C54.7724 74.5917 55.9419 75.8121 57.4507 75.8121ZM65.2834 75.7904C66.3373 75.7904 67.117 75.321 67.7234 74.7L67.0881 73.783C66.5972 74.274 65.9764 74.6423 65.2545 74.6423C63.9839 74.6423 62.7422 73.5158 62.7422 72.0572C62.7422 70.5986 63.9695 69.4577 65.2545 69.4577C65.9475 69.4577 66.59 69.7898 67.0881 70.3025L67.7306 69.4071C67.0376 68.7139 66.193 68.3168 65.2761 68.3023C63.2837 68.3023 61.6161 70.0137 61.6161 72.05C61.6161 74.0863 63.2837 75.7832 65.2906 75.7832L65.2834 75.7904ZM73.578 68.4323H68.6619V69.5588H70.5605V75.6749H71.6794V69.5588H73.578V68.4323ZM77.5991 75.8121C79.1079 75.8121 80.2773 74.5917 80.2773 72.9309V68.4323H79.1584V72.9237C79.1584 73.9274 78.4581 74.6567 77.5919 74.6567C76.7256 74.6567 76.0397 73.9202 76.0397 72.9237V68.4323H74.9208V72.9309C74.9208 74.5917 76.0903 75.8121 77.5991 75.8121ZM87.3592 75.6749L85.2946 72.7793C86.1103 72.5121 86.6951 71.6961 86.6951 70.7646C86.6951 69.4721 85.6122 68.4395 84.2984 68.4395H82.0965V75.6821H83.2155V72.8804H84.089L85.9948 75.6821H87.3665L87.3592 75.6749ZM83.2083 71.9272V69.5588H84.32C84.9769 69.5588 85.5472 70.057 85.5472 70.7285C85.5472 71.4001 84.9914 71.9272 84.32 71.92H83.2083V71.9272ZM93.5748 75.6749H94.7804L91.4452 68.2807H91.3802L88.0523 75.6749H89.2578L89.7415 74.5701H93.0912L93.5748 75.6749ZM90.1674 73.5952L91.4164 70.7646L92.6652 73.5952H90.1747H90.1674ZM101.27 68.4323H99.2562V75.6749H101.27C103.523 75.6749 104.923 74.2884 104.923 72.0644C104.923 69.8404 103.523 68.4323 101.27 68.4323ZM101.278 74.5412H100.361V69.5588H101.263C102.822 69.5588 103.797 70.5191 103.797 72.05C103.797 73.5808 102.822 74.534 101.278 74.534V74.5412ZM110.684 69.5443V68.4251H106.461V75.6676H110.684V74.534H107.58V72.5265H110.258V71.3929H107.58V69.5371H110.684V69.5443ZM119.968 68.4251H115.059V69.5515H116.957V75.6676H118.076V69.5515H119.975V68.4251H119.968ZM126.638 75.6676L124.573 72.7721C125.389 72.5049 125.974 71.6889 125.974 70.7574C125.974 69.4649 124.891 68.4323 123.57 68.4323H121.368V75.6749H122.487V72.8731H123.361L125.267 75.6749H126.638V75.6676ZM122.487 71.92V69.5515H123.599C124.256 69.5515 124.826 70.0498 124.826 70.7213C124.826 71.3929 124.263 71.92 123.599 71.9128H122.487V71.92ZM132.854 75.6676H134.059L130.731 68.2734H130.666L127.338 75.6676H128.544L129.028 74.5628H132.377L132.861 75.6676H132.854ZM129.446 73.588L130.695 70.7574L131.944 73.588H129.454H129.446ZM139.95 68.4034V73.1259L135.431 68.2951H135.373V75.6676H136.485V70.9452L141.018 75.7832H141.069V68.3962H139.957L139.95 68.4034ZM144.996 75.7904C146.433 75.7904 147.523 74.9672 147.523 73.6747C147.523 72.5338 146.649 71.985 145.538 71.4795C144.679 71.104 144.022 70.9018 144.022 70.3314C144.022 69.8187 144.541 69.4071 145.191 69.4071C145.704 69.4071 146.195 69.6815 146.411 70.1725L147.234 69.5876C146.945 68.7933 146.187 68.2951 145.177 68.2951C143.899 68.2951 142.895 69.1183 142.895 70.3097C142.895 71.5012 143.812 71.8911 144.65 72.2666C145.473 72.6349 146.411 73.0392 146.411 73.7036C146.411 74.2523 145.812 74.6423 145.011 74.6423C144.325 74.6423 143.74 74.3173 143.422 73.7541L142.549 74.3968C142.953 75.2344 143.834 75.7904 144.996 75.7904ZM149.003 75.6676H150.115V73.1548H151.371C152.742 73.1548 153.861 72.1005 153.861 70.8152C153.861 69.5299 152.742 68.4251 151.371 68.4251H149.003V75.6676ZM151.371 72.0283H150.115V69.5515H151.371C152.129 69.5515 152.749 70.1148 152.749 70.8008C152.749 71.4867 152.129 72.0355 151.371 72.0283ZM158.59 75.7832C160.604 75.7832 162.257 74.1007 162.257 72.0572C162.257 70.0137 160.604 68.3023 158.59 68.3023C156.576 68.3023 154.93 69.992 154.93 72.0572C154.93 74.1224 156.576 75.7832 158.59 75.7832ZM158.59 74.6351C157.189 74.6351 156.056 73.4725 156.056 72.05C156.056 70.6274 157.196 69.4432 158.59 69.4432C159.983 69.4432 161.131 70.613 161.131 72.05C161.131 73.4869 159.983 74.6351 158.59 74.6351ZM169.065 75.6676L167 72.7721C167.816 72.5049 168.4 71.6889 168.4 70.7574C168.4 69.4649 167.318 68.4323 166.004 68.4323H163.802V75.6749H164.921V72.8731H165.794L167.7 75.6749H169.072L169.065 75.6676ZM164.914 71.92V69.5515H166.033C166.689 69.5515 167.26 70.0498 167.26 70.7213C167.26 71.3929 166.697 71.92 166.033 71.9128H164.914V71.92ZM174.602 68.4251H169.693V69.5515H171.591V75.6676H172.71V69.5515H174.609V68.4251H174.602ZM180.232 69.5443V68.4251H176.016V75.6676H180.232V74.534H177.128V72.5265H179.807V71.3929H177.128V69.5371H180.232V69.5443Z" fill="#0F3E68" stroke="#0F3E68" stroke-width="0.5" stroke-miterlimit="10"></path><path d="M23.5718 63.4574C25.0806 63.4574 26.2501 62.2371 26.2501 60.5763V56.0777H25.1311V60.5691C25.1311 61.5728 24.4309 62.3021 23.5646 62.3021C22.6983 62.3021 22.0125 61.5656 22.0125 60.5691V56.0777H20.8936V60.5763C20.8936 62.2371 22.063 63.4574 23.5718 63.4574ZM32.6462 56.056V60.7785L28.1271 55.9477H28.0693V63.3202H29.181V58.5978L33.7074 63.4358H33.7579V56.0488H32.6462V56.056ZM35.6493 63.3202H36.761V56.0777H35.6493V63.3202ZM40.6666 56.0777H38.6524V63.3202H40.6666C42.9189 63.3202 44.3194 61.9338 44.3194 59.7098C44.3194 57.4857 42.9189 56.0777 40.6666 56.0777ZM40.6738 62.1866H39.757V57.2041H40.6593C42.2114 57.2041 43.186 58.1645 43.186 59.7026C43.186 61.2406 42.2114 62.1866 40.6666 62.1866H40.6738ZM50.1596 63.3202H51.3652L48.03 55.926H47.965L44.637 63.3202H45.8426L46.3263 62.2154H49.6759L50.1596 63.3202ZM46.7522 61.2406L48.0011 58.41L49.2428 61.2406H46.7522ZM54.6932 56.0777H52.6791V63.3202H54.6932C56.9455 63.3202 58.346 61.9338 58.346 59.7098C58.346 57.4857 56.9455 56.0777 54.6932 56.0777ZM54.7004 62.1866H53.7836V57.2041H54.686C56.2381 57.2041 57.2126 58.1645 57.2126 59.7026C57.2126 61.2406 56.2453 62.1866 54.6932 62.1866H54.7004ZM65.0742 56.0777H63.0601V63.3202H65.0742C67.3265 63.3202 68.727 61.9338 68.727 59.7098C68.727 57.4857 67.3265 56.0777 65.0742 56.0777ZM65.0814 62.1866H64.1646V57.2041H65.0742C66.6263 57.2041 67.6009 58.1645 67.6009 59.7026C67.6009 61.2406 66.6263 62.1866 65.0814 62.1866ZM74.4878 57.1897V56.0704H70.2719V63.313H74.4878V62.1793H71.3837V60.1719H74.0619V59.0382H71.3837V57.1825H74.4878V57.1897ZM79.3391 63.313H80.4508V60.8001H81.7069C83.0785 60.8001 84.1975 59.7459 84.1975 58.4606C84.1975 57.1752 83.0785 56.0704 81.7069 56.0704H79.3391V63.313ZM81.7069 59.6737H80.4508V57.1969H81.7069C82.4649 57.1969 83.0857 57.7601 83.0857 58.4461C83.0857 59.1321 82.4649 59.6809 81.7069 59.6737ZM86.7169 62.1793V56.0704H85.6052V63.313H89.8717V62.1793H86.7097H86.7169ZM96.2316 63.313H97.4372L94.1092 55.9188H94.0443L90.7163 63.313H91.9219L92.4055 62.2082H95.7552L96.2389 63.313H96.2316ZM92.8242 61.2334L94.0731 58.4028L95.3221 61.2334H92.8315H92.8242ZM103.321 56.0488V60.7713L98.8016 55.9405H98.7439V63.313H99.8556V58.5905L104.389 63.4285H104.44V56.0416H103.328L103.321 56.0488ZM110.547 57.1825V56.0632H106.331V63.3058H110.547V62.1721H107.443V60.1647H110.121V59.031H107.443V57.1752H110.547V57.1825ZM117.174 63.3058H118.38L115.052 55.9116H114.987L111.659 63.3058H112.864L113.348 62.201H116.698L117.181 63.3058H117.174ZM113.767 61.2262L115.016 58.3956L116.257 61.2262H113.767ZM122.365 63.4213C123.419 63.4213 124.198 62.952 124.805 62.331L124.169 61.4139C123.679 61.9049 123.058 62.2732 122.336 62.2732C121.065 62.2732 119.824 61.1467 119.824 59.6881C119.824 58.2295 121.051 57.0886 122.329 57.0886C123.022 57.0886 123.671 57.4208 124.162 57.9334L124.805 57.038C124.112 56.3448 123.267 55.9477 122.35 55.9332C120.358 55.9332 118.69 57.6446 118.69 59.6809C118.69 61.7172 120.351 63.4141 122.365 63.4141V63.4213ZM126.22 63.3058H127.331V56.0632H126.22V63.3058ZM132.666 55.4639L133.713 53.998H132.731L131.865 55.4639H132.666ZM132.544 63.4213C134.558 63.4213 136.211 61.7389 136.211 59.6953C136.211 57.6518 134.558 55.9405 132.544 55.9405C130.529 55.9405 128.883 57.6302 128.883 59.6953C128.883 61.7605 130.529 63.4213 132.544 63.4213ZM132.544 62.2732C131.143 62.2732 130.01 61.1106 130.01 59.6881C130.01 58.2656 131.15 57.0814 132.544 57.0814C133.937 57.0814 135.085 58.2512 135.085 59.6881C135.085 61.1251 133.937 62.2732 132.544 62.2732ZM142.333 56.0416V60.764L137.813 55.9332H137.756V63.3058H138.867V58.5833L143.394 63.4213H143.444V56.0343H142.333V56.0416ZM150.519 56.0632H148.498V63.3058H150.519C152.771 63.3058 154.172 61.9194 154.172 59.6953C154.172 57.4713 152.771 56.0632 150.519 56.0632ZM150.526 62.1721H149.609V57.1897H150.512C152.064 57.1897 153.038 58.1501 153.038 59.6881C153.038 61.2262 152.064 62.1721 150.526 62.1721ZM159.933 57.1752V56.056H155.717V63.2986H159.933V62.1649H156.828V60.1575H159.507V59.0238H156.828V57.168H159.933V57.1752Z" fill="#0F3E68" stroke="#0F3E68" stroke-width="0.5" stroke-miterlimit="10"></path></g><defs><clipPath id="clip0_1002_3964"><rect width="180" height="76" fill="white" transform="translate(0.419922)"></rect></clipPath></defs></svg>