<?xml version="1.0" encoding="UTF-8"?>
<svg id="Capa_1" data-name="Capa 1" xmlns="http://www.w3.org/2000/svg" viewBox="0 0 1080 1080">
  <defs>
    <style>
      .cls-1 {
        fill: #d7723f;
      }

      .cls-1, .cls-2, .cls-3, .cls-4, .cls-5 {
        stroke-width: 0px;
      }

      .cls-2 {
        fill: #da723f;
      }

      .cls-3 {
        fill: #ffc800;
      }

      .cls-4 {
        fill: #d80025;
      }

      .cls-5 {
        fill: #003189;
      }
    </style>
  </defs>
  <g>
    <path class="cls-2" d="M555.36,340.36c.95,1.03,2.74,1.54,4.54.75.29.79.95,1.46,1.77,1.78.4.14.81.21,1.22.21.96,0,1.95-.4,2.92-1.17,1.2,1.68,4.05,2.12,7.05,2.12,1.72,0,3.48-.14,4.98-.26.85-.07,1.58-.12,2.12-.14,3.79-.18,6.47-1.02,8.53-3.57,1.92.71,7,1.93,12.43-5.56,1.56-.48,9.5-3.41,8.11-11.95,1.17-1.08,4.91-5.06,2.75-10.14.3-1.11,1.17-4.89-.7-6.71-.36-.8-2.1-4.38-5.15-4.99-1.88-.37-3.82.44-5.77,2.41-.29.29-1.13,1.19-1.41,2.04-1.77,1.02-2.5,2.82-2.71,3.48-1.42.72-2.22,2.13-2.59,2.96-2.54-.5-5.4.11-8.55,1.8-2.12-1.59-4.58-2.46-7.21-2.46h-.04c-3.41-.07-6.76,1.5-9.43,4.46-3.46,3.83-5.21,9.42-4.72,14.72-.72,0-1.46.2-2.09.63-1.12.77-1.83,2.14-1.91,3.66v.03h-.02c-1.48-.1-2.79.33-3.75,1.24-1.66,1.91-1.23,3.7-.36,4.65M594.35,313.33c3.65,1.39,5.07,5.42,5.09,5.46l1.35-.46c-.06-.19-1.63-4.69-5.92-6.32-.02,0-.03,0-.04-.02.39-.8,1.2-2.07,2.56-2.33,1.4-.26,3.9.47,7.85,5.47l1.12-.88c-3.24-4.12-6.13-6.12-8.6-6.03.38-.72,1.05-1.64,2.19-2.07,1.77-.68,4.13-.04,7.01,1.91l.79-1.18c-2.64-1.79-4.96-2.57-6.93-2.38.12-.13.23-.26.34-.38,1.59-1.61,3.09-2.29,4.47-2.02,2.63.53,4.16,4.25,4.18,4.29l.06.16.13.12c1.32,1.13.68,4.42.32,5.59l-.08.26.12.24c2.31,5.04-2.37,8.8-2.56,8.97l-.34.27.08.43c1.63,8.41-6.88,10.69-7.24,10.78l-.26.06-.14.21c-4.26,5.99-8.55,5.98-10.71,5.46,3.44-5.51,3.59-13.57.28-19.98-.94-1.81-2.09-3.33-3.39-4.56,3.14-1.59,5.93-1.96,8.28-1.07M556.74,336.7c.84-.79,2-.86,2.56-.82.6.09.98-.12,1.19-.3.21-.19.45-.54.41-1.05.06-1.07.56-2.05,1.3-2.57.76-.53,1.78-.54,2.44,0l1.31,1.04-.16-1.66c-.04-.46.1-.82.42-1.12.55-.5,1.58-.74,2.53-.56.58.06,2.54.37,2.96,1.77l.51,1.7.8-1.58c.88-1.71,2.62-2.29,3.88-2.09,1.29.2,2.17,1.13,2.4,2.54l1.41-.23c-.34-2.03-1.69-3.42-3.6-3.71-.35-.05-.7-.05-1.04-.04.4-2.18,1.84-7.54,6.15-8.7.8.88,1.46,1.96,1.99,3.25,2.04,5.01,1.22,11.62-1.88,15.38l1.1.91c3.47-4.21,4.36-11.28,2.11-16.82-1.58-3.88-4.39-6.22-7.93-6.62-2.82-.29-5.63.97-7.88,3.54-2.09,2.38-3.46,5.59-3.9,9.08,0,.11-.04.49-.05.79-.18.1-.35.21-.5.36-.15.13-.28.29-.38.45-.34-4.79,1.29-9.78,4.39-13.22,2.38-2.64,5.35-4.07,8.35-3.99h.04c4.32,0,8.16,2.64,10.54,7.24,3.14,6.09,2.96,13.74-.39,18.85-1.25,2.52-5.48,3.73-7.88,3.75-.57.02-1.33.08-2.2.15-3.41.27-9.72.81-10.91-1.38l-.24-.37-.38-1.06c-1.01,1.21-2.53,2.53-4.04,1.98-.55-.21-1.08-.83-1.01-1.5l.15-1.59-1.29.94c-1.39,1.03-2.9.77-3.61,0-.64-.71-.5-1.73.34-2.7M567.23,328.25c.39-3.24,1.64-6.21,3.55-8.38,1.94-2.21,4.31-3.3,6.66-3.06,1.3.14,2.49.63,3.53,1.39-4.89,1.96-6.16,8.34-6.42,10.12-.8.32-1.55.84-2.13,1.53-.74-.88-1.97-1.46-3.48-1.62-.51-.09-1.12-.09-1.71.02"/>
    <path class="cls-2" d="M470.88,322.56c-1.39,8.55,6.55,11.47,8.11,11.96,3.55,4.89,7.27,6.03,9.95,6.03,1.72,0,3.02-.46,3.57-.71,1.33.37,2.63.57,3.91.57,1.62,0,3.18-.3,4.69-.9.39.41,1.1.78,2.46.74,1.35-.04,2.98-.09,4.42-.76.49.54,1.38.82,2.54.8,2.37-.04,4.64-.2,6.43-1.4.39.29.96.46,1.71.5,3.46.16,7.04.33,10.5-.13.81-.04,1.42-.44,1.61-1.08.19-.66-.13-1.4-.84-1.89-.13-.1-.29-.18-.43-.27-.25-.14-.48-.28-.58-.43-.03-.05-.05-.11-.08-.16-.08-.17-.18-.38-.37-.57l-.23-.16c-1.05-.45-2.47-.58-3.84-.71-.61-.05-1.19-.12-1.71-.2-.39-1.38-1.92-2.27-3.46-2.37-.14,0-.34-.02-.4-.06-.05-.03-.13-.16-.21-.26-.05-.08-.11-.15-.17-.24-.55-.7-1.28-1.03-2.04-1.19.41-5.21-1.31-10.5-4.73-14.27-2.62-2.88-5.88-4.45-9.18-4.45h-.27c-2.63,0-5.09.88-7.22,2.47-3.13-1.71-6-2.31-8.55-1.81-.37-.83-1.17-2.23-2.59-2.96-.21-.65-.95-2.46-2.71-3.47-.28-.85-1.12-1.76-1.41-2.04-1.95-1.98-3.88-2.79-5.77-2.42-3.05.62-4.8,4.19-5.15,4.99-1.87,1.81-1,5.61-.7,6.72-2.16,5.07,1.58,9.05,2.75,10.13M517.32,331.73l.11.16c.15.21.33.48.63.67.37.24.77.26,1.2.29.98.06,2.05.71,2.1,1.59l.03.55.55.11c.71.15,1.54.22,2.34.3,1.17.11,2.38.22,3.23.54.02.04.04.07.04.1.05.11.11.21.17.31.29.46.72.71,1.08.91.11.06.22.12.32.2.23.16.28.3.29.3-.02.02-.11.07-.38.08-3.4.45-6.91.29-10.3.12-.71-.03-.94-.19-.96-.27l-.31-1.07-.84.73c-1.51,1.32-3.76,1.46-6.13,1.51-.67.02-1.46-.13-1.54-.48l-.2-1.04-.89.58c-1.14.75-2.59.85-4.36.9-.81.03-1.37-.13-1.44-.4l-.22-.8-.76.35c-.83.38-1.78.63-2.77.79-3.44-3.48-4.73-9.96-2.98-15.31.38-1.18,1.11-2.8,2.33-4.14,4.5,1.22,5.89,7.3,6.24,9.36l-.99.04.06,1.42,6.7-.28c.64-.03,1.2-.03,1.48.17.65.6,1.31.89,1.96.9.39.04.8.04,1.21.04,1.21,0,2.35,0,2.97.79M498.92,318.2c.96-.69,2.1-1.22,3.54-1.39,1.95-.26,4.04.56,5.88,2.3,2.7,2.54,4.32,6.47,4.3,10.23-.17-.1-.36-.23-.58-.43-.79-.55-1.79-.51-2.44-.48l-4.27.18c-.3-2.04-1.65-8.45-6.44-10.4M502.25,312.38h.04c3.01-.04,5.94,1.35,8.32,3.97,3.11,3.42,4.74,8.41,4.38,13.17-.21,0-.44,0-.64,0-.09,0-.19,0-.29,0,.07-4.19-1.73-8.62-4.75-11.45-2.16-2.04-4.67-2.98-7.03-2.67-3.84.45-6.87,3.22-8.3,7.6-1.56,4.8-1.1,11.52,2.55,15.94-1.52.05-3.08-.13-4.49-.52-3.31-5.11-3.49-12.72-.36-18.79,2.38-4.61,6.21-7.24,10.55-7.24M469.57,312.27c-.36-1.17-1-4.46.32-5.59l.12-.12.07-.15s1.55-3.77,4.18-4.29c1.38-.28,2.88.4,4.47,2.02.11.11.22.24.34.37-1.96-.21-4.29.58-6.93,2.37l.79,1.19c2.88-1.95,5.23-2.6,6.99-1.93,1.13.44,1.81,1.35,2.21,2.08-2.47-.08-5.36,1.92-8.6,6.03l1.12.88c3.94-4.99,6.44-5.73,7.85-5.46,1.37.25,2.17,1.53,2.56,2.33-.02,0-.03,0-.04,0-4.29,1.63-5.86,6.13-5.92,6.33l1.35.46s1.41-4.05,5.08-5.46c2.35-.89,5.13-.53,8.29,1.07-1.3,1.22-2.46,2.75-3.39,4.56-3.3,6.4-3.16,14.45.27,19.97-2.16.49-6.48.48-10.7-5.45l-.15-.21-.25-.07c-.37-.09-8.88-2.34-7.24-10.78l.08-.42-.34-.28c-.2-.15-4.88-3.92-2.56-8.96l.12-.25-.08-.26Z"/>
    <path class="cls-2" d="M539.26,334.34c-.06,2.38-.31,4.92-.75,7.57l-.05.3.19.24c.05.08,1.54,2.04,4.17,2.97l.83.29.12-.87c.04-.28.88-6.74.12-13.72,8.74-2.68,11.47-11.48,12.23-15.21.45-2.19.32-2.29.02-2.53l-.31-.25-.38.14c-7.41,2.86-10.88,8.32-12.48,12.48-.57-2.26-1.37-4.19-2.36-5.8,7.18-.76,12.79-6.81,12.79-14.16,0-4.14-1.79-7.87-4.65-10.47l3.54-4.34-6.67.79-2.01-3.42-3.42,2.11-2.7-2.2-1.38,2.77-6.03-2.35,1.61,4.9c-4.63,2.68-6.8,7.61-6.8,12.21,0,5.88,3.55,12.3,11.3,13.88.31.42,1.95,2.81,2.71,7.84-2.51-3.83-7-8.35-14.64-9.63l-.59-.1-.21.56c-.21.6,1.51,4.57,3.33,7.35,2.36,3.58,6.41,7.91,12.49,8.62M543.5,328.75c.96-3.69,3.69-10.21,11.33-13.64-.56,3.21-2.93,12.26-11.62,14.75l.29-1.11ZM548.94,292.84l-1.3,1.61c-.61-.46-1.25-.87-1.93-1.22l3.23-.38ZM551.97,305.83c0,5.75-3.82,10.63-9.05,12.24,8.38-11.33,2.48-20.94-.52-24.61,5.5,1.46,9.57,6.45,9.57,12.37M543.1,290.36l1.33,2.28c-1.12-.45-2.3-.76-3.54-.92l2.21-1.36ZM537.96,290.53l1.31,1.07c-.07,0-.13,0-.21,0-.59.03-1.16.07-1.71.14l.61-1.21ZM535.09,292.21c-.75.21-1.46.46-2.13.75l-.6-1.81,2.73,1.06ZM526.29,305.83c0-5.24,3.15-10.96,9.97-12.45-3,3.6-9.12,13.26-.71,24.72-6.33-1.72-9.27-7.21-9.27-12.27M538.45,293.08c.21-.02.42-.05.64-.06.36,0,.71.03,1.05.05,1.45,1.39,11.72,12.14.59,25.47-.53.06-1.07.11-1.62.11-.49-.02-.96-.06-1.42-.12-11.03-13.37-.7-24.06.75-25.45M538,319.98c.31.03.63.06.95.08,1.49,2.13,2.55,5.02,3.15,8.63l.22,1.41.08.62c.67,5.49.26,10.9.05,13.02-1.27-.63-2.13-1.51-2.49-1.91.46-2.85.71-5.58.73-8.12l.02-.68-.07-2.24v-.05c-.32-5.65-1.71-9.07-2.64-10.75M539.28,331.18l.85,1.81h-.09c-9.14-.64-13.59-10.19-14.85-13.45,8.38,1.9,12.4,8.04,14.09,11.64"/>
    <path class="cls-2" d="M490.72,199.27c-.6-.71-.63-1.94-.22-2.76.13-.24.28-.46.47-.66.03-.04.07-.06.11-.09-.84.37-2.02,0-2.41-.87-.49-1.04.19-2.4,1.29-2.81-.9.14-1.71.63-2.56.94-.87.31-1.91.4-2.62-.18-.69-.56-.79-1.62-.48-2.46.3-.84.95-1.51,1.56-2.15-1.41.33-2.68,1.71-4.05,1.25-1.39-.46-1.54-2.45-.79-3.7.74-1.24,2.02-2.1,2.83-3.3-2.12,1.01-4.36,1.79-6.65,2.32-.8.19-1.75.31-2.38-.21-.45-.37-.4-1.16-.04-1.53l-3.22,1.06c-.75.25-1.55.49-2.3.27-.76-.22-1.34-1.14-.92-1.79-1.14.7-2.4,1.42-3.74,1.27-.8-.09-1.38-.46-1.79-1.17-.47-.83-.12-1.21.59-1.79-1.29.5-2.56,2.09-2.15,3.55.29,1.05,1.54,1.62,2.65,1.52,1.1-.1,2.09-.69,3.03-1.27-.4.25.77,1.53.94,1.65.76.56,1.92.72,2.83.53.54-.12,1.05-.34,1.55-.59.18-.08,1.46-.68,1.46-.85.03.71.99.9,1.71.88,1.44-.04,2.87-.07,4.29-.12-1.02.91-1.29,2.53-.63,3.71.67,1.18,2.2,1.82,3.52,1.46-1.1,1.22-.21,3.42,1.37,3.9,1.36.41,2.84-.23,3.77-1.3-.13.16-.24.37-.34.55-.1.2-.2.39-.27.6-.15.43-.23.88-.16,1.34.06.38.23.78.46,1.11.2.3.48.55.82.7.17.06.36.11.54.11.45,0,.81-.19,1.15-.45-.25.41-.5.81-.71,1.24-.21.43-.38.88-.45,1.35-.15,1.12.8,2.05,1.84,2.21.59.08,1.22-.02,1.75-.31,1.2-.7,1.86-2.01,2.41-3.27-.91,1.21-3.02,1.27-4,.11"/>
    <path class="cls-2" d="M437,184.54c.89-.23,1.67-.77,2.46-1.23.21-.13.48-.25.68-.11.2.13.2.4.22.63.1,1.08,1.2,1.87,2.29,1.96,1.1.08,2.16-.4,3.07-1.01-.03.21-.05.41-.08.61.45.71,1.32,1.04,2.16,1.07.85.03,1.67-.21,2.47-.46,1.03-.31,2.13-.69,2.7-1.58-.52.51-1.16,1.07-1.89.96-.81-.12-1.28-1.06-1.16-1.87.12-.8.66-1.47,1.19-2.1-1.4.85-2.92,1.51-4.5,1.96-.65.19-1.34.33-2,.16-.65-.17-1.24-.76-1.18-1.43.04-.37.26-.71.51-.98.39-.44.88-.79,1.4-1.04-1.29.53-2.58,1.04-3.88,1.57-.96.38-1.97.78-3.01.71-1.04-.07-2.11-.76-2.25-1.78-.05-.4.04-.79.22-1.18-.17.12-.35.22-.51.34-.65.51-1.29,1.09-1.63,1.84-.35.75-.36,1.7.17,2.34.58.71,1.65.85,2.54.62"/>
    <path class="cls-2" d="M502.06,161.88c-.06-.02-.29.12-.36.14-.11.05-.22.1-.33.13-.47.18-.96.3-1.46.29-.79-.03-1.62-.5-1.78-1.27-.11-.5.06-1.08-.23-1.5-.3-.41-.92-.43-1.43-.32-1.17.23-3.6,1.95-4.53.46-.14-.24-.15-.54-.1-.8.04-.2.1-.38.18-.55-1.03.88-2.07,1.2-3.24,1.8-1.15.6-2.33,1.14-3.54,1.66-.71.3-1.7.48-2.26-.21-.67-.84.06-2.22.64-2.92.63-.74.64-.75,1.46-1.28-3.12,1.22-5.78,1.88-9.11,3.04-3.32,1.16-6.63,2.63-9.19,5.05-.4.38-.8.81-.92,1.35-.12.54.17,1.21.71,1.31-3.71,1.17-6.99,3.7-9.06,6.99-.44.68-.78,1.68-.16,2.21.29.26.7.29,1.08.29,1.09-.03,2.17-.38,3.06-1.02-.6-.43-.72-1.3-.48-1.99.24-.7.77-1.24,1.3-1.74,2.13-1.98,4.62-3.56,7.32-4.64-.4.18-.87-.26-.89-.71-.02-.45.26-.85.54-1.2.26-.31.54-.62.82-.9,1.24-1.25,2.73-2.22,4.3-3.01,1.66-.84,3.42-1.48,5.2-2.05.24-.08.49-.16.73-.24.09-.03.68-.15.71-.22-.54,1.69-.64,4.13,1.74,4.13,2.46,0,4.89-1.11,6.51-2.96-.52.75-.96,1.79-.42,2.53.49.68,1.52.64,2.33.45,1.93-.46,3.73-1.39,5.21-2.71-.6.79-1.18,1.96-.47,2.65.08.08.18.15.29.21.4.2.92.17,1.38.08.67-.12,1.31-.33,1.93-.61.8-.37,1.55-.88,2.19-1.49.06-.06.46-.39.32-.44"/>
    <path class="cls-2" d="M452.09,201.25c-2.9,1.46-6.02,2.5-9.22,3.09-.96.17-2.3.06-2.45-.88-.06-.42.16-.83.4-1.18,1.08-1.62,2.56-2.97,4.29-3.93-2.79,1.36-5.8,2.29-8.88,2.76-1.23.19-2.96-.08-3.02-1.31-.02-.51.3-.97.63-1.38,1.2-1.45,2.63-2.71,4.23-3.7-2.55,1.68-5.37,2.98-8.3,3.85-1.21.36-2.62.62-3.63-.12-.7-.5-.79-1.61-.37-2.26-1.76,1-3.79,1.52-5.81,1.42-.37-.02-.77-.07-1.04-.32-.96-.85.16-2.47.96-3.36-1.17,1.2-2.35,2.33-3.21,3.8-.46.77-.74,1.93.02,2.41.29.19.65.21.99.2.69,0,1.41-.08,2.12-.21.44-.08.86-.18,1.27-.29.49-.13.98-.3,1.46-.5.24-.1,1.22-.39,1.32-.63-.67,1.69,1.18,3.5,3.02,3.56,1.83.06,3.49-1.01,5-2.03-.61.84,0,2.11.94,2.56.95.45,2.06.3,3.09.1,1.8-.37,3.56-.92,5.25-1.63-.65,1.63-3.06,2.9-2.25,4.46.34.65,1.13.92,1.86,1.05,2.86.53,5.92-.12,8.3-1.76.53-.36,1.08-.79,1.72-.75.5.04.93.35,1.39.55.96.42,2.14.33,3.04-.23-1.77.13-3.4-1.64-3.11-3.36"/>
    <path class="cls-2" d="M413.91,212.95c-.11-.43-.03-.88.17-1.27.06-.13.19-.24.23-.37-.17,0-.33.18-.46.27-.16.11-.33.21-.5.31-.34.2-.7.37-1.06.52-.72.29-1.5.49-2.28.58-.53.06-1.06.07-1.59.03-.28-.02-.55-.05-.8-.11-.22-.04-.46-.04-.62-.23-.19-.21-.29-.49-.32-.77-.03-.26-.02-.6.06-.86.02-.07.05-.15.09-.22.1-.24.18-.48.34-.68.17-.21.32-.41.54-.57-1.69,1.1-3.58,1.91-5.56,2.31-.3.06-.65.11-.91-.05-.58-.34-.3-1.21.05-1.78,1.63-2.56,3.66-4.79,5.91-6.82-2.4,1.56-4.61,3.48-6.54,5.58-.8.88-1.62,2.02-1.24,3.13.33.98,1.5,1.49,2.54,1.41,1.04-.07,1.99-.59,2.9-1.1.24-.13.48-.26.72-.39.21-.13.46-.19.66-.32-.25.72-.39,1.5-.34,2.28.02.34.1.68.29.97.16.26.46.52.78.56.37.04.76-.02,1.12-.11.53-.12,1.04-.28,1.54-.46.77-.29,1.5-.66,2.2-1.1.53-.33.97-.71,1.43-1.13.08-.07.19-.21.29-.22,0,.12-.04.29-.07.41-.06.17-.12.34-.14.51-.04.36-.03.72.1,1.06.15.41.46.76.83.97.2.11.35.09.55.12.21.02.42.04.63.03.76-.09,1.45-.48,2.07-.93,1.85-1.32,3.34-3.11,4.3-5.15-2.04,1.46-4.26,2.68-6.59,3.63-.27.11-1.21.38-1.31-.04"/>
    <path class="cls-2" d="M615.22,180.91c.71.57,1.06.96.6,1.79-.41.72-1,1.08-1.8,1.17-1.34.15-2.6-.57-3.74-1.27.43.66-.15,1.58-.91,1.8-.76.22-1.56-.03-2.31-.28l-3.22-1.06c.36.37.41,1.15-.04,1.53-.63.53-1.57.4-2.38.21-2.3-.53-4.53-1.31-6.65-2.31.81,1.21,2.09,2.05,2.83,3.3.74,1.24.6,3.24-.79,3.7-1.38.45-2.64-.92-4.05-1.26.63.65,1.26,1.32,1.57,2.15.31.84.21,1.89-.49,2.46-.71.57-1.75.48-2.61.18-.86-.31-1.66-.8-2.56-.95,1.1.41,1.77,1.77,1.29,2.82-.4.86-1.58,1.23-2.42.86.04.04.08.06.12.09.19.2.35.42.46.67.41.82.38,2.04-.22,2.75-.98,1.17-3.08,1.11-4-.11.55,1.26,1.21,2.58,2.42,3.27.52.3,1.15.4,1.75.31,1.04-.15,1.98-1.09,1.84-2.21-.06-.47-.25-.92-.46-1.35-.21-.42-.46-.83-.7-1.23.33.26.7.46,1.14.44.19,0,.37-.04.54-.11.34-.13.63-.39.83-.7.21-.32.38-.72.45-1.11.07-.45,0-.91-.16-1.33-.07-.21-.16-.41-.27-.6-.1-.19-.21-.4-.34-.56.93,1.07,2.41,1.71,3.77,1.3,1.58-.48,2.46-2.68,1.37-3.9,1.32.36,2.86-.28,3.52-1.46.66-1.19.38-2.8-.63-3.71,1.43.04,2.87.07,4.3.11.71.03,1.69-.17,1.71-.88,0,.16,1.29.76,1.46.85.49.25,1.01.47,1.55.59.9.2,2.07.03,2.82-.54.18-.12,1.34-1.4.94-1.64.94.57,1.93,1.16,3.04,1.26,1.11.1,2.35-.46,2.65-1.51.4-1.46-.88-3.04-2.16-3.55"/>
    <path class="cls-2" d="M627.5,185.39c-.73.11-1.37-.46-1.88-.97.55.9,1.67,1.28,2.69,1.58.81.24,1.63.49,2.47.46.84-.03,1.72-.37,2.17-1.07-.03-.2-.06-.4-.09-.61.91.61,1.97,1.08,3.07,1,1.1-.08,2.19-.88,2.3-1.95.02-.23.02-.5.21-.63.2-.13.47,0,.69.11.79.47,1.56,1.01,2.46,1.24.89.23,1.96.08,2.55-.63.52-.63.52-1.59.17-2.33-.35-.75-.98-1.33-1.64-1.84-.16-.12-.34-.22-.51-.34.18.37.28.78.22,1.18-.13,1.02-1.21,1.71-2.25,1.77-1.04.07-2.04-.32-3-.71-1.29-.52-2.59-1.04-3.88-1.56.53.26,1.01.61,1.4,1.04.25.28.48.61.51.98.06.66-.53,1.25-1.18,1.43-.65.17-1.35.02-2-.16-1.58-.45-3.1-1.11-4.5-1.96.53.62,1.07,1.29,1.19,2.1.12.8-.35,1.75-1.16,1.87"/>
    <path class="cls-2" d="M576.85,162.32c.64.62,1.39,1.12,2.2,1.49.61.28,1.26.49,1.92.61.46.09.97.12,1.38-.08.11-.05.21-.13.29-.21.7-.7.12-1.87-.47-2.65,1.46,1.32,3.28,2.26,5.2,2.71.82.2,1.84.23,2.34-.45.54-.74.09-1.78-.43-2.53,1.62,1.86,4.05,2.96,6.51,2.96,2.39,0,2.29-2.45,1.74-4.13.03.07.62.2.71.22.25.08.49.16.74.24,1.77.57,3.53,1.21,5.2,2.05,1.56.79,3.05,1.76,4.3,3.01.29.29.55.59.81.9.29.35.56.75.55,1.2-.02.45-.49.89-.9.71,2.7,1.08,5.2,2.66,7.32,4.64.54.5,1.06,1.04,1.3,1.74.24.69.12,1.56-.47,2,.88.63,1.96.98,3.05,1.01.38,0,.79-.03,1.09-.28.61-.54.27-1.53-.16-2.21-2.08-3.29-5.35-5.82-9.06-6.99.54-.11.82-.77.71-1.3-.12-.54-.52-.97-.92-1.36-2.55-2.42-5.86-3.88-9.19-5.05-3.32-1.16-6.75-2.06-9.94-3.57.83.53,1.67,1.06,2.3,1.81.59.69,1.31,2.07.64,2.91-.55.69-1.54.51-2.26.21-1.2-.52-2.38-1.06-3.54-1.66-1.16-.61-2.21-.92-3.24-1.8.08.17.14.36.18.55.05.27.05.56-.1.8-.92,1.49-3.35-.23-4.53-.46-.51-.11-1.12-.09-1.42.32-.3.42-.13,1-.24,1.5-.16.77-.99,1.24-1.77,1.27-.51,0-1-.12-1.46-.29-.12-.04-.23-.08-.34-.13-.07-.03-.29-.16-.36-.14-.13.04.26.38.32.44"/>
    <path class="cls-2" d="M626.42,204.83c.46-.21.89-.52,1.4-.54.63-.04,1.19.38,1.71.75,2.38,1.63,5.45,2.29,8.3,1.75.72-.13,1.52-.4,1.86-1.04.82-1.56-1.6-2.83-2.25-4.46,1.69.72,3.45,1.27,5.25,1.63,1.04.21,2.14.36,3.09-.1.95-.45,1.54-1.72.94-2.56,1.51,1.03,3.17,2.09,5,2.04,1.84-.06,3.69-1.88,3.03-3.56.09.24,1.07.54,1.31.63.47.19.96.36,1.46.49.41.12.83.21,1.27.29.71.13,1.43.21,2.12.21.34,0,.7-.02.99-.21.76-.48.47-1.63.02-2.41-.87-1.47-2.04-2.6-3.21-3.8.8.88,1.92,2.51.96,3.37-.28.25-.68.29-1.04.31-2.03.11-4.05-.42-5.8-1.42.41.65.31,1.77-.38,2.27-1.02.72-2.43.47-3.63.12-2.94-.88-5.75-2.18-8.3-3.86,1.6,1,3.04,2.25,4.23,3.71.33.39.65.86.63,1.37-.05,1.23-1.79,1.5-3.02,1.31-3.08-.46-6.08-1.4-8.87-2.75,1.71.95,3.2,2.3,4.28,3.92.24.36.47.76.4,1.18-.15.95-1.49,1.06-2.45.88-3.2-.59-6.31-1.63-9.22-3.09.29,1.72-1.34,3.48-3.11,3.36.89.56,2.07.66,3.04.23"/>
    <path class="cls-2" d="M661.06,214.51c.63.45,1.3.84,2.07.93.21.02.42,0,.63-.03.2-.03.36,0,.55-.12.38-.21.69-.57.84-.98.12-.33.14-.7.09-1.05-.03-.17-.08-.34-.13-.51-.04-.13-.08-.29-.08-.42.12.02.21.16.29.23.46.42.9.79,1.43,1.12.7.44,1.44.8,2.21,1.1.5.19,1.01.35,1.53.46.37.09.76.15,1.13.1.32-.04.61-.3.78-.56.19-.29.27-.63.29-.96.05-.78-.09-1.55-.34-2.28.2.13.45.2.66.32.24.12.48.26.72.39.91.51,1.86,1.03,2.9,1.1,1.04.07,2.21-.43,2.54-1.41.37-1.12-.43-2.26-1.23-3.13-1.94-2.1-4.13-4.02-6.54-5.58,2.25,2.04,4.28,4.26,5.91,6.82.36.56.63,1.44.05,1.78-.27.16-.61.12-.92.05-1.98-.4-3.87-1.21-5.55-2.31.21.16.36.37.53.57.17.2.25.44.35.68.04.07.06.15.09.22.08.25.09.6.05.86-.04.28-.13.55-.31.77-.15.19-.39.19-.62.23-.27.05-.54.09-.8.11-.53.04-1.06.04-1.59-.03-.79-.09-1.55-.29-2.29-.58-.36-.15-.71-.32-1.05-.52-.17-.1-.34-.21-.5-.31-.13-.09-.3-.28-.46-.27.04.13.17.25.23.38.2.39.27.84.17,1.27-.11.43-1.05.15-1.31.04-2.33-.96-4.55-2.18-6.6-3.63.96,2.04,2.46,3.83,4.3,5.15"/>
    <path class="cls-2" d="M534.58,259.94c-5.63-.79-7.36-6.67-7.36-6.67l-1.38,2.22c3.74,5.32,8.74,4.45,8.74,4.45"/>
    <path class="cls-2" d="M523.22,170.85c-.96,0-1.75.79-1.75,1.75s.79,1.75,1.75,1.75,1.75-.79,1.75-1.75-.79-1.75-1.75-1.75M523.22,173.37c-.42,0-.77-.34-.77-.77s.35-.77.77-.77.77.35.77.77-.35.77-.77.77"/>
    <path class="cls-2" d="M725.1,278.26c-.57-.88-1.55-1.33-2.57-1.28l-23.48,5.1-2.54,12.62-6.15,4.02c-.09-10.84-.58-22.21-1.48-33.92l12.45,2.71,13.86-19.2c.69-.94.71-2.18.08-3.15-.57-.87-1.54-1.33-2.57-1.27l-23.48,5.1-2.54,12.61-56.22,36.8c-.25-4.83-.57-9.73-1.04-14.75-.02-.2-.04-.32-.04-.43,1.37.17,2.66.27,3.89.27,3.11,0,5.8-.62,8.11-2.13,7.82-5.02,10.24-20.16,10.65-23.15l.04-.35-.79-.48c-1.46-1.01-5.02-3.81-6.03-7.85,1.25.13,2.5.41,3.71.86,1.06.39,2.21.95,3.42,1.52,3.21,1.54,7.02,3.37,11.61,3.37,1.52,0,3.12-.2,4.81-.67,7.38-2.47,10.32-6.17,10.45-6.32l.81-1.04-9.18-.81,2.88-8.55-1.82,1.34s-4.35,3.2-6.37,3.93l-.39.13c-1.74.56-3.71,1.21-9.37-1.07-3.46-1.43-6.44-1.96-9.05-1.64-3.28.39-5.58,2.41-7.62,4.19-1.99,1.75-4.48,3.92-5.25,6.66l-.06.35c-.12.45-.2.9-.26,1.36l-.04.2h0c-.09.86-.09,1.73.03,2.59.16,1.27.53,2.49,1.02,3.66.39.92.87,1.8,1.4,2.63,0,0,.02.02.02.03-5.7.03-13.47-1.06-23.98-4.36-7.61-2.37-15.14-3.57-22.39-3.57h0c-10.32,0-19.04,2.36-26.11,5.55-.02-.22-.05-.46-.12-.67-.2-.56-.53-1.06-.85-1.57-.84-1.34-1.65-2.77-1.87-4.36-.26-1.79.07-3.61.36-5.38.38-2.56.24-4.94-.45-7.23-.41-1.42-1.04-2.56-1.98-3.61-.38-.41-.73-.85-1.1-1.31-.16-.2-.31-.39-.47-.59.88-1.41,1.33-2.82,1.34-4.32,0-.13.15-.36.29-.55l.12-.2c.13-.19.27-.37.41-.56.22-.3.45-.61.63-.95.49-.86.7-1.83.6-2.9l-.03-1.62c.29-.15.51-.33.71-.52.79,1.77,2.27,2.83,4.11,2.89,1.79.05,3.81-.91,5.24-2.37.32.45.77.87,1.39,1.1,1.55.59,3.01-.4,3.49-.72,1.3-.88,2.63-1.86,3.61-3.23.54.18,1.04.19,1.43.12,1.79-.29,2.82-2.08,3.46-3.46l.12-.28c.29-.68.35-.75.55-.85,1.37-.65,1.96-1.93,2.34-3.05.18-.03.36-.08.54-.15.61-.28.95-.23,1.44.2.8.69,1.88.68,2.77.25.74.74,1.7,1.08,2.71.93.65-.1,1.28-.41,1.8-.88.25.19.53.36.87.49.58.21.95.68,1.55,1.49l.23.3c1.34,1.78,2.74,2.12,3.68,2.13.75,0,1.79-.26,2.87-1.29,1.51.99,2.76.98,3.56.78.87-.22,2.1-.88,2.96-2.79.72-1.61,1.14-3.12,1.28-4.57.83-.05,1.63-.43,2.23-1.09.21.17.43.36.57.48.31.26.59.49.79.63,1.63,1.12,3.36,2.11,5.13,2.96.57.28,1.25.58,2.04.66.71.08,1.27-.05,1.7-.2.2.13.46.32.8.55,4.9,3.46,7.96,5.1,10.09,3.83.27-.16.61-.42.89-.85,2.88,2.04,5.88,4.04,9.34,5.26.73.26,1.49.28,2.2.06.57-.18.98-.47,1.29-.79.76.53,1.53,1.07,2.31,1.64,2.62,1.88,5.31,3.84,8.38,5.03,1.81.84,3.04.48,3.75.04.96-.61,1.41-1.58,1.63-2.63,1.64,1.41,3.36,2.87,6.04,3.63l.16.04c1.39.28,2.34-.12,2.96-.65,1.98,1.57,4.04,3.17,6.47,4.31,1.17.55,2.5.42,3.48-.36.5-.39.79-.83.96-1.27,1.94.89,3.78,1.79,5.44,3.02.79.56,2.87,2.05,5.05.71.45-.3.92-.77,1.17-1.46,1.04.87,2.12,1.71,3.25,2.45.98.74,4.02,2.8,6.17,1.62.46-.26,1.14-.8,1.38-1.95.64.42,1.32.83,2.08,1.29,1.09.6,2.16,1.32,3.29,2.09,2.34,1.59,4.75,3.23,7.69,3.88l.18.04c.16.02.31.03.46.03.68,0,1.26-.21,1.73-.61.68-.58.97-1.42.87-2.49-.4-4.12-3.05-7.05-5.44-9.69-6.17-6.84-13.45-12.93-20.48-18.83-2.66-2.22-5.4-4.53-8.01-6.8-17.87-15.6-36.39-29.76-56.61-43.31-17.74-11.88-35.73-18.34-53.45-19.22-7.65-.37-13.66.6-18.39,2.97-10.93,5.71-7.41,17.53-4.85,26.15l.21.72c1.53,4.67,1.71,7.98.55,9.86-.46.74-1.2,1.27-2.16,1.64-.04-.05-.07-.09-.07-.09l-.24-.24c-4.5-5.17-11.65-4.83-13.76-4.6-.83-.53-1.63-1.1-2.04-1.46.23-3.27-.48-6.27-2.07-8.7-.54-.81-1.15-1.54-1.86-2.2-.03-.03-.04-.04-.07-.06,0-.05,0-.1,0-.16-.1-1.19-.61-2.28-1.43-3.05-1.02-.96-2.42-1.48-3.99-1.44-1.39.03-2.64.47-3.58.86l-.28.12c-.79.33-1.63.67-2.16.51-.11-.04-.26-.11-.41-.18,1.02-5.58.03-10.73-2.88-14.14-5.22-6.15-15.26-6.93-22.74-6.5-17.73.87-35.72,7.33-53.45,19.21-20.23,13.55-38.75,27.71-56.61,43.31-2.61,2.28-5.36,4.58-8.01,6.8-7.04,5.89-14.31,11.99-20.54,18.88-2.34,2.59-4.99,5.53-5.38,9.62-.19,1.69.78,2.47,1.21,2.74.43.26.93.38,1.51.38,1.4,0,3.24-.75,5.52-2.25,1.3-.88,2.62-1.67,3.88-2.44,1.07-.64,2.15-1.29,3.23-2,.43-.29,1.04-.2,1.29.25.35.63.84.96,1.2,1.14,1.92.93,4.5-.37,8.46-3.47.37-.3.95-.27,1.24.11.23.3.52.54.79.73,2.11,1.3,4.2-.19,5-.77,1.44-1.06,3.02-1.88,4.69-2.66.38-.18.83-.03,1.08.31.16.21.36.42.61.62.97.78,2.31.92,3.46.37,2.21-1,4.06-2.45,5.87-3.85.21-.17.41-.33.63-.49.63.55,1.57.92,2.96.66l.18-.04c2.13-.62,3.66-1.67,5.03-2.79.45-.37,1.12-.22,1.37.3.28.58.67,1.1,1.27,1.47.71.45,1.94.8,3.63,0,3.19-1.23,5.88-3.19,8.49-5.07.8-.57,1.55-1.12,2.32-1.64.3.32.72.62,1.29.79.7.21,1.46.2,2.19-.06,3.21-1.12,6.03-2.93,8.71-4.8.35-.24.8-.2,1.13.08.35.31.78.54,1.26.64,2.09.49,4.94-1.13,9.15-4.1.37-.25.67-.47.88-.62.38.13.96.28,1.7.2l.29-.05c2.21-.58,4.09-1.78,5.9-2.94l.98-.63c.21-.14.49-.37.79-.63.14-.13.36-.31.57-.48.47.51,1.06.85,1.7,1,.35.08.59.39.63.75.35,2.54,1.44,5.54,3.66,6.5.71.31,1.99.59,3.55-.24.31-.17.69-.14.97.07.9.7,1.76.88,2.4.88.96.02,2.34-.36,3.68-2.13l.23-.3c.62-.83.97-1.28,1.55-1.49.33-.13.62-.3.86-.49.53.46,1.15.77,1.8.88,1.02.15,1.99-.19,2.71-.91.87.41,1.96.43,2.78-.28.49-.42.83-.46,1.44-.19.17.07.35.12.54.15.36,1.1.96,2.39,2.33,3.05.21.1.27.17.55.85l.13.32c.62,1.32,1.63,3.13,3.45,3.41.46.07,1.05.05,1.71-.23,0,.04,0,.07,0,.11l.22.99.86-.54c1.37-.87,2.62-2.39,3.55-4.29.43,2.14,1.28,4.13,2.45,5.88-3.86,3.2-5.87,8.44-5,13.11l.19,1,.88-.52c1.44-.84,2.76-2.38,3.77-4.31.42,2.71,1.46,5.24,3.03,7.33-3.83,4.02-4.71,8.76-3.45,13.21l.28.98.82-.6c1.3-.95,2.45-2.53,3.26-4.46.23,1.34.6,2.63,1.11,3.8,1.11,2.51.89,3.13,3,4.72-.38.54-.72,1.17-1.04,1.79-6.82-2.89-15.07-4.97-24.76-4.97-7.25,0-14.78,1.21-22.39,3.57-10.52,3.3-18.28,4.38-23.98,4.36,0,0,0-.02.02-.03.54-.83,1.01-1.71,1.4-2.63.5-1.17.86-2.39,1.03-3.66.11-.86.11-1.73.02-2.6h.02s-.04-.19-.04-.19c-.06-.46-.14-.91-.26-1.36l-.07-.35c-.77-2.74-3.26-4.91-5.25-6.66-2.04-1.78-4.34-3.79-7.62-4.19-2.62-.32-5.58.21-9.05,1.64-5.65,2.28-7.63,1.63-9.37,1.07l-.39-.13c-2.01-.73-6.32-3.89-6.37-3.93l-1.82-1.34,2.89,8.55-9.18.81.8,1.04c.12.15,3.08,3.85,10.45,6.32,1.7.47,3.3.67,4.81.67,4.6,0,8.4-1.82,11.61-3.37,1.21-.57,2.36-1.13,3.42-1.52,1.21-.45,2.46-.72,3.71-.86-1.01,4.04-4.56,6.84-6.03,7.85l-.79.48.04.35c.41,2.98,2.84,18.13,10.65,23.15,2.31,1.51,5,2.13,8.12,2.13,1.17,0,2.41-.09,3.71-.25-.48,5.08-.86,10.13-1.1,15.12l-56.15-36.75-2.54-12.61s-23.48-5.1-23.49-5.07c-1.02-.09-1.99.37-2.56,1.24-.63.97-.61,2.21.07,3.15l13.87,19.2,12.45-2.71c-.91,11.71-1.39,23.08-1.48,33.92l-6.15-4.02-2.54-12.62s-23.49-5.1-23.49-5.07c-1.01-.09-1.99.37-2.56,1.25-.63.97-.61,2.21.08,3.14l13.86,19.2,12.06-2.62c-8.59,64.77,1.06,108.79,10.73,134.35,9.94,26.29,21.64,38.79,23.52,40.69,3.18,3.69,23.97,26.28,56.17,26.28,13.92,0,29.95-4.27,47.54-16.17-5.51,18.02-19.62,39.26-19.77,39.49l-.78,1.15,1.38-.04c6.38-.21,11.45.33,15.3,1.08l-2.37,9.72c-.31.9-.26,1.61-.26,1.61-.04.51.15,1.58,1.09,2.45,1.47,1.34,4.17,1.7,8.01,1.04,1.75-.29,3.1-.32,4.17-.21l.37,10.28c-.04.18-.03.38.02.61.04.23.12.49.29.74,1.27,1.93,5.87,2.91,13.69,2.91s12.4-.98,13.65-2.9c.32-.5.37-1,.3-1.37l.37-10.27c1.08-.11,2.43-.08,4.17.21,3.85.65,6.55.29,8.02-1.04.94-.87,1.13-1.94,1.09-2.4-.03-.22,0-.45-.03-.68-.08-.61-.29-1.21-.43-1.79-.24-.99-.48-1.97-.72-2.96-.29-1.16-.57-2.32-.85-3.49-.19-.75-.37-1.51-.55-2.26l-.04-.19c3.86-.75,8.92-1.28,15.3-1.08l1.38.04-.77-1.15c-.15-.22-14.3-21.53-19.8-39.57,17.64,11.97,33.7,16.25,47.66,16.25,32.19,0,53.16-22.76,56.34-26.45.54-.52,12.63-12.45,23.25-40.52,9.66-25.57,19.32-69.59,10.73-134.35l12.06,2.62,13.86-19.19c.68-.95.71-2.18.08-3.15M692.43,252.16l18.11-3.93-10.85,15.02-9.09-1.97,1.83-9.12ZM380.29,263.25l-10.85-15.02,18.1,3.93,1.84,9.12-9.09,1.97ZM370.45,296.36l-10.85-15.02,18.11,3.93,1.83,9.12-9.09,1.97ZM659.39,283.97l25.82-16.89c.88,11.79,1.34,23.25,1.37,34.11l-29.4,19.23c1.23-11.01,1.96-22.99,2.21-36.45M630.67,302.78l12.25-8.02c-.55,13.52-1.68,25.76-3.43,37.24l-9.53,6.24c.89-11.19,1.18-22.99.71-35.47M629.51,343.07l15.24-9.97c-.88,20.96-3.71,41.93-10.22,61.89-3.3,10.21-7.59,20.13-12.81,29.62-5.17,9.37-11.33,18.3-18.17,26.54-3.57,4.32-7.36,8.45-11.29,12.41-2.84-2.72-4.95-5.15-6.25-6.76,20.29-25.31,38.49-62.69,43.5-113.73M562.7,455.93c-.39-.64-1.07-.88-1.62-1.05l-.28-.1c-.34-.12-.55-.34-.56-.41.02-.06.23-.21.37-.29.18-.13.37-.25.59-.49.77-1.04.76-2.24-.02-3.31-1.09-1.51-3.37-2.32-4.91-1.8-.71.17-1.33.49-1.94.8-.3.15-.61.31-.92.45-.43.18-1.5.55-2.21.06-.22-.15-.43-.41-.63-.68-.28-.35-.59-.75-1.04-1.04-.67-.42-1.45-.47-2.07-.51l-8.27-.52c-1.09-.12-1.79.25-2.26,1.19-.17.17-.54.17-1.11.15-.46,0-1-.03-1.5.13-.88.29-1.39.98-1.85,1.6-.27.37-.53.72-.83.96-.78.57-1.89.41-3.07.24-.55-.07-1.13-.15-1.67-.16-1.53-.06-3.73.65-4.88,2.11-.65.83-.86,1.79-.55,2.86.1.21.21.39.34.58.08.11.16.22.21.35.18.38.02.96-.4,1.35-.48.52-1.26.6-2.14.7-.97.1-2.07.21-2.9,1.04-.26.29-.43.61-.58.89-.13.27-.25.5-.4.63-.15.13-.37.23-.63.35-.24.11-.48.21-.71.36-1.57,1.04-1.57,2.9-1.57,4.55,0,.72-.03,1.29-.1,1.76-13.12-12.55-26.53-30.11-37.15-53.07h10.78c.23.48.47.96.7,1.44,1.53,3.32,3.11,6.76,6.06,9.08.77.86,1.34,1.88,1.94,2.96.57,1.01,1.15,2.06,1.94,2.99,1.13,1.34,2.56,2.31,3.95,3.26,3.89,2.64,8.3,5.64,13.31,6.68,1.21.26,2.46.39,3.66.53,1.49.16,2.89.31,4.27.67,1,.26,1.95.61,2.96.98.82.3,1.65.62,2.49.86,3.13.93,6.38,1.05,9.54,1.18,5.31.21,10.8.42,16.11-.98l.76-.21c2.61-.71,5.31-1.45,7.15,0,.71.56,1.27,1.46,1.8,2.32.96,1.52,1.94,3.09,3.96,3.26.5-.03.62.07.63.08.12.12.12.63.12,1.02,0,.27,0,.55.03.89.14.96.87,1.71,1.92,1.98.29.07.57.11.86.11.91,0,1.78-.37,2.3-1.04,1.3-1.65.63-4.11-.8-5.38l-.12-.11c-.15-.13-.3-.26-.34-.35-.03-.07-.05-.28.32-.79,2.04-2.88,5.35-4.79,8.86-5.11.27-.03.54-.04.81-.06,1.22-.08,2.49-.16,3.59-.88l1.04-.68-1.1-.55c-.74-.38-1.45-.85-2.1-1.38,2.61-1.45,5.42-1.94,8.51,1.51-7.97,12.19-16.64,22.16-25.15,30.05-.17-.29-.29-.66-.34-1.13l-.05-.2c-.13-.3-.3-.54-.46-.76-.13-.16-.23-.31-.29-.46-.09-.21-.1-.49-.11-.81,0-.28-.02-.54-.06-.81-.26-1.4-1.46-2.54-3.41-3.19-.53-.19-.7-.3-.75-.37.12-.59.54-1.22.98-1.89.8-1.24,1.71-2.63,1.02-4.38M520.34,281.89c-22.6,7.92-40.5,2.4-51.01-3.2,2.2-.62,4.46-1.25,6.84-1.88,20.62-3.96,36.04-.61,44.23,2.17-.13.96-.15,1.94-.05,2.9M528.27,282.74c1.26,1.72,2.82,3.16,4.59,4.13l.88.48.16-.99c.29-1.8.08-3.91-.57-6.05,1.5-.78,3-1.62,4.52-2.51.31.78.66,1.54,1.09,2.25l.54.88.63-.82c.57-.74,1.05-1.63,1.45-2.63,14.82,8.88,28.32,11.97,39.89,11.97,14.18,0,25.48-4.61,32.76-8.76.09-.05.72-.43,1.19-.71,2.91.81,5.62,1.54,8.15,2.13.03.46.06.98.08,1.19,2.34,24.12,1.95,45.94-.46,65.6h-166.35c-2.52-19.98-2.99-42.16-.62-66.71,2.57-.58,5.34-1.32,8.31-2.15,11.86,7.02,35.23,15.26,63.75,2.71M514.32,232.13v-.02c-.05-.22-.14-.44-.2-.66,1.4,1.28,3.07,2.22,4.84,2.68l.97.26-.08-1c-.17-2.12-1.26-4.51-3-6.57l-.02-.02c-1.18-1.3-2.98-2.77-4.88-3.55.25-1.13.34-2.38.31-3.68l4.89,3.79,1.37,1.94.12,3.96c.18.34.41.64.63.95.14.19.28.38.4.56l.13.2c.12.2.28.42.28.55.02,1.5.46,2.91,1.35,4.32-.16.2-.32.39-.47.59-.37.46-.71.9-1.1,1.31-.85.94-1.43,1.96-1.84,3.19-1.35-1.02-2.92-2.12-3.53-2.43.33-1.93.28-4.14-.19-6.38M516.16,177.9c-.04.93-.16,1.88-.36,2.85-.29,1.53-.83,3.08-1.54,4.5-1.21,2.24-2.82,4.07-4.47,5.1,0-3.56,1.35-7.19,3.68-9.88.87-1.01,1.76-1.86,2.7-2.56M515.09,175.34c-2.84-.37-5.23.41-7.13,2.32,0,0-.04.03-.08.05-.05-.76.19-1.37.44-1.91.25-.51.51-.94.79-1.32.63-.83,1.48-1.56,2.52-2.15.6-.33,1.22-.45,1.83-.45.55,0,1.1.1,1.61.21.57.14.91.54,1.05,1.28.12.55.08.91-.33,1.94-.04,0-.07,0-.11,0-.19.02-.39.04-.59.02M510.83,201.14v-.02c.04-.59,0-1.19,0-1.79,1.26,1.71,2.93,3.08,4.81,3.87l.92.38.06-.99c.13-2.13-.61-4.65-2.04-6.94v-.02c-.96-1.38-2.43-3.01-4.1-4.05,1.9-1.15,3.7-3.15,5.05-5.67v-.02c.73-1.43,1.27-2.98,1.6-4.52.52,1.71,1.25,3.3,1.98,4.55,1.36,2.21,3.27,4.05,5.46,5.26-2.39,4.25-2.63,9.41-.51,13.41l.48.92.68-.79c1.22-1.4,2.08-3.56,2.41-6,1.3,2.72,3.22,4.97,5.57,6.46-.81.68-1.55,1.6-2.26,2.49-2.06,2.79-3,6.47-2.5,9.87l.14,1,.89-.47c1.72-.9,3.33-2.79,4.44-5.17.5,2.97,1.74,5.72,3.59,7.89-1.79,1.14-3.36,2.71-4.47,4.54-1.24,2.03-1.93,4.49-1.92,6.92v1l.95-.33c1.62-.56,3.24-1.89,4.58-3.7-.16,3.09.48,6.13,1.88,8.75-.91.37-1.8.88-2.7,1.51-2.81,1.96-4.82,5.15-5.38,8.55l-.16.96.97-.14c1.71-.26,3.59-1.29,5.24-2.88-.74,3.6-.35,7.42,1.13,10.59-1.07,1.22-2,2.62-2.8,4.28-1.51,3.07-2.04,6.63-1.57,9.97-2.08-1.86-4.74-3.96-7.92-6.05-.23-.87-.5-1.66-.79-2.25v-.02c-.18-.34-.37-.67-.57-1,1.25.47,2.56.73,3.88.73.34,0,.68-.02,1.03-.04l.94-.1-.35-.88c-.77-1.95-2.55-3.9-4.79-5.25h0c-.12-.08-.3-.15-.5-.23-.1-1.52-.54-3.03-2.29-3.24-.63-.08-1.28.04-1.9.14-.13.03-.28.04-.37-.03-.09-.06-.13-.18-.16-.28-.4-1.22-.65-2.49-.76-3.77.98.72,2.04,1.3,3.17,1.65l.94.29v-.98c-.04-2.13-.97-4.57-2.57-6.72v-.02c-.15-.18-.47-.47-.9-.82.14-.39.3-.77.51-1.11.9-1.48,1.88-2.93,2.98-4.25.17-.21.39-.43.66-.38-1.13-.69-1.86-1.49-2.12-2.82-.2-1.01-.24-2.14-.03-3.15.04-.17.11-.37.28-.42-.74-.2-1.27-.91-1.47-1.66-.21-.71-.26-1.67-.17-2.39l.05-.37-2.98-4.46s-3.01-.07-4.73-2.65c-.04-.06-.07-.11-.11-.16-.05-.48-.11-.98-.2-1.47,1.19,1.01,2.53,1.78,3.96,2.21l.95.29-.03-.99c-.07-2.13-1.05-4.56-2.71-6.71h0c-1.33-1.66-3.13-3.02-5.04-3.89.91-1.79,1.52-4,1.71-6.4M509.57,192.69c1.55.92,2.96,2.49,3.8,3.73,1.01,1.62,1.65,3.39,1.8,4.97-1.44-.81-2.7-2-3.62-3.43-.56-.88-1.01-1.85-1.37-2.88-.12-.5-.26-.99-.43-1.48-.07-.3-.14-.61-.2-.92M517.88,178.01c2.01,1.26,3.82,3.07,5.09,5.11,1.31,2.21,2.09,4.66,2.17,6.76-1.93-1.09-3.62-2.72-4.81-4.68-1.37-2.31-2.26-4.96-2.45-7.19M525.55,192.3c.56,1.54.85,3.59.75,5.55-.17,1.94-.7,3.7-1.47,5-1.26-3.23-.98-7.22.72-10.55M527.23,191.88c1.96,1.36,3.7,3.25,4.89,5.33,1.03,1.9,1.64,3.93,1.83,5.78v.8c-3.88-2-6.32-6.83-6.72-11.91M533.81,206.54c0,.22-.02.45-.03.67-.04.34-.06.68-.08,1.03-.15,1.34-.47,2.66-.98,3.87-.76,1.71-1.83,3.16-2.97,4.09-.12-2.7.73-5.49,2.38-7.72.51-.63,1.09-1.38,1.69-1.94M541.26,230.52c.03,2.52-.46,4.92-1.33,6.72l-.23-.1c-1.53-3-2.04-6.7-1.36-10.19.27-1.21.6-2.63,1.08-3.75,1.11,2.25,1.75,4.8,1.84,7.31M540.48,219.9c1.44,1.04,2.71,2.45,3.59,3.99.91,1.68,1.45,3.5,1.5,5.08-2.09-1.38-3.73-3.66-4.51-6.33-.22-.85-.48-1.84-.58-2.74M536.77,269.2c-.54,1.1-1.17,2.06-1.87,2.82-.83-3.44-.41-7.3,1.19-10.56.6-1.21,1.25-2.29,1.98-3.24.18.9.29,1.83.33,2.8.04.87.02,1.77-.07,2.67-.51,1.14-.93,2.38-1.24,3.73-.14.59-.25,1.19-.32,1.78M536.83,274.02c-.05.04-.11.07-.16.11-.27-.29-.58-.62-.91-.95.3-.32.6-.66.88-1.04.03.63.1,1.26.19,1.88M526.25,272.57c1.91,1.44,3.58,3.4,4.7,5.55,1.14,2.32,1.74,4.82,1.66,6.92-2.74-1.87-4.85-4.97-5.73-8.5-.27-1.24-.6-2.71-.63-3.97M526.41,279.49c-.12.05-.25.12-.37.17-.23-.11-.5-.22-.79-.35.12-.32.25-.65.36-.99v-.02c.06-.19.09-.39.14-.59.19.61.41,1.2.66,1.78M531.78,276.75c-1.38-2.34-3.32-4.46-5.53-5.9,0-.92-.16-2.48-.46-4.07,3.35,2.29,6.04,4.58,7.99,6.46.04.12.05.22.09.34l.32.97.5-.4c.21.21.44.43.63.63-.05.03-.11.06-.16.09-.77.41-1.53.83-2.28,1.26-.37.21-.74.42-1.1.62M538.17,269.6c.5-1.05.91-2.21,1.22-3.46h0c.14-.67.25-1.34.33-2.01.35.82.66,1.69.9,2.6.43,1.5.65,3.14.65,4.77-.06,2.6-.67,5.05-1.66,6.8-1.28-2.6-1.79-5.7-1.45-8.71M539.69,257.53c1.25,1.25,2.3,2.78,2.97,4.41.69,1.73.99,3.47.89,4.94-2.44-2.22-3.9-5.74-3.87-9.35M538.51,255.01c-1.24-3.27-1.3-7.16-.12-10.62.43-1.29.95-2.46,1.56-3.51.28.86.5,1.76.66,2.71.29,1.53.35,3.2.2,4.81-.3,2.57-1.14,4.96-2.3,6.61M536.15,244.29c-1.25,1.37-2.71,2.39-4.07,2.88.71-2.61,2.36-4.99,4.55-6.53.76-.53,1.5-.96,2.26-1.29-.16.46-.37.94-.56,1.39l-.18.42c-.5,1.1-1.2,2.18-2,3.12M536.01,207.94c.34.44.71.83,1.1,1.21.68,1.24,1.23,2.56,1.59,3.89.4,1.67.54,3.35.45,4.88l-.08.57c-.02.15,0,.32-.02.48-.04.34-.1.67-.17.98l-.13.08c-2.21-2.52-3.56-6.02-3.66-9.62,0-.71,0-1.5.04-2.28.04-.37.09-.73.1-1.1,0-.06.02-.13.03-.19.25.37.52.73.76,1.07M535.67,204.71c1.67.41,3.33,1.2,4.69,2.27,1.46,1.21,2.62,2.7,3.25,4.15-1.91-.36-3.77-1.35-5.29-2.79-.74-1.33-1.64-2.55-2.65-3.63M537.94,222.17c-.19,1.67-.86,3.61-1.85,5.34-.99,1.58-2.25,2.86-3.51,3.6.18-1.79.75-3.55,1.66-5.04.94-1.54,2.22-2.88,3.7-3.9M523.95,257.18c1.6.96,2.93,2.28,3.72,3.63-1.62-.04-3.25-.49-4.68-1.33-.38-.23-.75-.49-1.12-.76-.9-.5-2.27-2.11-2.16-2.02-.29-.33-.54-.68-.77-1.02,1.73.12,3.5.64,5,1.5M520.14,254.62c.04-.07.07-.14.12-.2.27-.39.57-.65.94-.81.2-.1.41-.13.61-.13s.37.04.53.13c.13.08.24.18.32.31.08.12.13.28.16.45.03.21.05.4.07.59,0,.13,0,.23,0,.35-.85-.25-1.84-.49-2.73-.68M513.04,212.32c1.17,1.51,1.97,3.22,2.28,4.78-1.6-.71-3.04-1.91-4.17-3.41-.51-1.35-1.18-2.64-1.96-3.83-.11-.29-.22-.6-.3-.88,1.58.79,3.05,1.96,4.16,3.35M511.54,224.61c1.64.7,3.24,2.04,4.24,3.13,1.22,1.46,2.11,3.13,2.48,4.66-1.54-.6-2.95-1.6-4.05-2.88-1.18-1.36-2.11-3.04-2.69-4.85,0-.02.02-.04.02-.06M519.08,243.65c1.13,1.52,1.91,3.25,2.17,4.8-2.25-1.03-4.19-3.02-5.3-5.51-.34-.82-.74-1.79-.96-2.68,1.55.8,3.01,1.99,4.09,3.38M518.8,257.79c.59.68,1.28,1.32,2.03,1.91.95,1.04,1.79,2.21,2.44,3.45,1.14,2.32,1.73,4.83,1.66,6.93-2.74-1.88-4.85-4.98-5.73-8.5-.07-.34-.15-.69-.22-1.05-.06-.78-.2-1.55-.37-2.31-.02-.21-.04-.42-.04-.62.08.06.16.13.24.2M524.25,277.89c-.57,1.77-1.43,3.3-2.44,4.38-.23-1.64-.11-3.37.38-4.96.59-1.81,1.51-3.51,2.54-4.71.19,1.77.02,3.61-.48,5.3M555.81,280.45c6.38-2.71,23.6-8.35,48.12-3.63,2.19.57,4.27,1.15,6.3,1.72-12.91,6.79-31.59,11.28-54.43,1.91M622.67,352.7c-3.11,22.6-8.9,42.25-16.23,59.1h-64.6v-1.75l4.35-9.25-4.15-12.55c2.19.31,4.44.99,6.64,2.24.45,1.83,2.54,9.48,6.03,10.64,1.26.42,2.78.6,4.31.6,3.02,0,6.1-.68,7.39-1.5l.84-.54-.78-.63s-2.62-1.88-5.1-4.43c-3.36-3.47-3.26-9.97-3.08-13.36,0-.29.04-.68.1-1.17.47-4.88,1.9-19.72-10.62-22.09-2.68-.51-5.43-.52-8.11-.04-2.37.42-4.66,1.21-6.82,2.25-1.79.87-3.5,1.92-5.1,3.11-.93.69-1.98,1.36-2.8,2.21-1,1.04-1.19,2.11-1.38,3.49-.17,1.22-.3,2.46-.29,3.71,0,.67.02,1.54.43,2.13.88,1.23,1.78.92,2.43.69.14-.04.29-.1.44-.14.21,1.82-.63,8.92-1.67,15.32l-.24,1.51,1.31-.79c.07-.04,4.3-2.5,9.96-3.23l-4.17,12.56,4.51,9.26v1.74h-62.54c-7.38-16.86-13.22-36.51-16.4-59.1h165.33ZM581.14,438.77c.56.55,1.19,1.04,1.84,1.48-.52.11-1.09.14-1.68.19-.29.02-.57.04-.85.06-3.91.37-7.61,2.5-9.88,5.7-.21.3-.87,1.21-.48,2.15.17.43.48.7.74.91l.11.09c.93.81,1.41,2.42.63,3.42-.39.51-1.15.58-1.68.45-.24-.06-.8-.27-.88-.76-.02-.26-.02-.51-.02-.74,0-.75,0-1.52-.55-2.04-.38-.37-.94-.52-1.58-.47-1.22-.11-1.95-1.26-2.79-2.6-.6-.96-1.22-1.97-2.13-2.68-2.41-1.9-5.6-1.04-8.41-.27l-.75.21c-5.09,1.34-10.48,1.13-15.69.94-3.06-.13-6.23-.25-9.19-1.12-.81-.24-1.6-.54-2.39-.83-1-.37-2.03-.76-3.1-1.04-1.47-.38-3-.54-4.46-.71-1.17-.13-2.38-.26-3.54-.5-4.73-.98-9.02-3.89-12.8-6.46-1.3-.88-2.65-1.8-3.66-3-.7-.82-1.22-1.77-1.78-2.77-.62-1.1-1.25-2.23-2.22-3.29-2.77-2.2-4.21-5.32-5.73-8.63-.13-.29-.28-.56-.41-.85h116.92c-3.87,8.4-8.12,16.1-12.6,23.06-4.14-4.32-8.11-2.75-10.89-1.01l-.77.49.66.63ZM533.32,400.7l4.18-12.62c.97-.06,1.96-.08,2.98,0l4.19,12.64-4.18,8.88-.04,2.21h-2.73v-2.07l-4.4-9.03ZM552.19,371.8c-1.48-3.34-4.34-6.3-7.94-6.88-2.98-.49-5.98.68-8.61,2.15-2.2,1.23-4.25,2.69-6.13,4.35-.87.76-1.7,1.56-2.65,2.21-.36.24-.98.74-1.44.74-.5,0-.7-.63-.71-1.03-.02-1.53.09-3.04.32-4.55.06-.45.14-.89.34-1.3.27-.54.72-.96,1.19-1.36,4.88-4.22,11.14-7.09,17.6-7.09,2.6,0,5.26.48,7.43,1.9,3.08,2.01,4.77,5.64,5.35,9.27.59,3.62.24,7.32.09,10.99-.15,3.67-.07,7.45,1.32,10.85,1.24,3.05,3.54,5.67,6.42,7.3-2.48.88-5.16,1.17-7.78.84-.86-.11-1.74-.29-2.46-.77-.81-.54-1.36-1.4-1.82-2.26-1.09-1.98-1.9-4.12-2.43-6.32-.11-.44-.21-.89-.49-1.24-.21-.24-.48-.4-.76-.55-3.41-1.87-7.38-2.62-11.27-2.42-3.88.2-7.7,1.3-11.22,2.93.84-4.62,1.33-9.3,1.45-13.98,0-.25.02-.51.09-.74.02-.06.04-.13.06-.19.13-.26.34-.46.55-.66,2.72-2.48,5.68-4.74,8.99-6.33,2.43-1.17,5.28-1.97,7.8-1.04,1.45.54,2.64,1.61,3.59,2.83,2.81,3.66,3.38,8.51,3.85,13.1.46-.02.92-.03,1.38-.04-.31-3.64-.63-7.36-2.11-10.7M640.09,245.82c1.96-1.72,4-3.5,6.85-3.85,2.38-.29,5.1.22,8.34,1.54,6.13,2.47,8.37,1.75,10.34,1.12l.41-.13c1.35-.49,3.46-1.84,4.97-2.87l-2.05,6.06,8.18.71c-1.36,1.21-4.14,3.29-8.74,4.82-6.28,1.75-11.12-.56-15.39-2.61-1.24-.6-2.42-1.16-3.55-1.57-4.39-1.62-9.23-1.34-13.15.65.99-1.44,2.46-2.71,3.8-3.88M635.22,252.03c2.44-1.75,5.46-2.63,8.55-2.6.89,4.37,4.32,7.4,6.2,8.77-1.38,1.31-4.86,3.63-12.24,3.97-.87-1.17-3.76-5.56-2.5-10.14M589.64,255.72h0c7.1,0,14.48,1.18,21.96,3.5,24.31,7.43,35.13,3.49,38.72.58-.85,4.89-3.45,16.31-9.74,20.36-5.82,3.79-14.86,1.26-27.36-2.27-2.81-.79-5.8-1.63-8.96-2.46-26.62-5.12-44.86,1.79-50.26,4.25-1.1-.48-2.21-1-3.34-1.55-.21-.13-.44-.29-.66-.42-.91-.55-1.84-1.07-2.77-1.59-.76-.43-1.52-.85-2.28-1.26-.05-.03-.11-.06-.17-.09,5.63-5.95,20.78-19.06,44.85-19.06M561.63,258.19c.13.24.27.48.4.71.19.32.37.66.39,1.03.02.82-.98,1.11-1.63.84-1.08-.45-2.22-1.38-3.07-2.17-1.08-1-3.75-4.68-1.46-5.78,1.23-.59,2.47.78,3.12,1.66.85,1.16,1.54,2.45,2.25,3.71M561.85,184.31c2.41-3.88,1.06-9.3-.15-12.99l-.2-.68c-2.95-9.88-4.59-17.74,2.95-21.68,4.1-2.06,9.48-2.9,16.47-2.55,17.03.83,34.37,7.08,51.52,18.57,20.09,13.45,38.49,27.52,56.23,43.01,2.63,2.3,5.4,4.62,8.06,6.85,6.94,5.81,14.12,11.83,20.16,18.52,1.71,1.89,3.35,3.71,4.07,5.87-1.57-.66-3.08-1.69-4.66-2.76-1.15-.79-2.35-1.6-3.54-2.24-2.29-1.38-3.48-2.17-5.48-4.1-.85-.71-2.07-.7-2.9.04-.83.74-.98,1.96-.33,2.92.43.61.66.96.8,1.25-.44-.22-.93-.52-1.37-.85l-.12-.09c-1.33-.86-2.7-1.99-4.01-3.09-1.07-.9-2.18-1.83-3.27-2.6l-6.8-4.8,4.04,7.28c.29.53.54,1.07.73,1.64-.02,0-.04-.03-.05-.04-2.22-1.64-4.67-2.76-7.04-3.83l-.93-.43c-.81-.4-1.78-.32-2.51.21-.59.44-.94,1.1-.97,1.8-1.75-.96-3.34-2.23-5.02-3.55-.46-.36-.9-.72-1.36-1.07l-1.68-1.29-1.11,1.8c-.11.18-.2.37-.29.55-.02.02-.02.04-.03.05-1.77-.58-2.99-1.63-4.4-2.84-.68-.59-1.39-1.2-2.2-1.79-.72-.54-1.67-.62-2.47-.22-.8.4-1.31,1.21-1.34,2.12v.14c0,.47-.02,1.32-.11,1.86-.05-.02-.11-.04-.18-.07-2.72-1.06-5.12-2.79-7.63-4.62-1.37-.98-2.78-2-4.25-2.91l-1.62-1-1,1.63c-.15.25-.26.5-.34.71-3.19-1.21-6.11-3.29-8.93-5.3l-.67-.47c-.42-.32-1.67-1.28-2.96-.44-.4.26-.98.83-.96,1.95-.91-.37-2.55-1.29-5.45-3.34-.48-.34-.87-.61-1.01-.7-1.29-.91-2.29-.71-3.11-.39-.04.02-.1.04-.17.05-.21-.02-.57-.2-.79-.3-1.6-.78-3.16-1.68-4.63-2.68-.13-.09-.28-.23-.46-.38-.98-.84-2.33-2-3.9-1.7-.72.14-1.35.57-1.79,1.27-.9-.34-1.68-.29-2.33.14-1.12.73-1.05,2.03-1.04,2.52.06,1.3-.25,2.66-.97,4.27-.23.5-.41.65-.41.67-.04,0-.29-.05-.81-.45-.04-.04-.09-.08-.14-.13-.37-.33-1.14-1.03-2.26-.85-.49.07-1.18.34-1.71,1.18-.37.49-.62.62-.62.63-.05-.02-.29-.13-.64-.62l-.22-.29c-.7-.93-1.55-2.09-3.12-2.72-.08-.1-.19-.28-.27-.41l-.22-.35c-.46-.71-1.27-1.11-2.1-1.04-.84.06-1.58.58-1.92,1.35l-.08.21c-.37-.41-.97-.9-1.83-.97-.68-.06-1.22.15-1.63.4-1.21-.7-2.54-.83-3.89-.4-.71-.15-1.26,0-1.63.17-1.05.5-1.37,1.56-1.46,1.92-.12.41-.36,1.26-.55,1.42-1.54.73-2.07,1.98-2.41,2.8l-.09.2c-.21.46-.38.76-.52.96-.54-.42-1.24-.57-1.92-.43-.73.16-1.35.68-1.64,1.38-.52,1.22-1.64,2.08-2.96,2.98l-.02-.04c-.06-.18-.12-.52-.18-.84-.08-.54-.19-1.13-.41-1.76l-1.79-4.84-1.96,5.34c-.12.31-.21.56-.34.91-.47,1.45-2.21,2.72-3.3,2.65-.21,0-.65-.03-.97-1.25-.03-.09-.03-.19-.04-.29-.06-.53-.18-1.41-.87-2.24l-1.56,1.25c-.46-2.27-2.05-4.64-2.32-5.22-.46-1-.15-2.83.99-5.05,1.15-2.21-1.83-7.48-1.83-7.48,4.13-4.98,1.88-11.3-.19-15.11,1.4-.67,2.53-1.63,3.3-2.88M553.97,185.93c.31.37.78.72,1.85.88.05.06.12.13.17.19,1.66,1.97,2.47,4.05,3.15,6.52.37,1.33.51,2.78.17,4.13-.26,1.04-.82,2.06-1.57,2.79-.5.49-.95,1.04-1.47,1.49-.08.07-.24.17-.39.27-1.21.63-3.3,1.4-6.68,1.87,0,0-2.42,1.72,7.33-.29.54.62,1.04,1.27,1.47,1.96.56.9.88,1.44.63,2.49,0,.83-.62,1.86-.88,2.63-.3.88-.55,1.78-.49,2.71.15,2.29,2.31,3.61,2.88,5.71.3,1.13,0,2.39-.71,3.3-.28.35-1.11.74-1.23,1.11-.12.36.27.96.31,1.33.1.72.04,1.69-.16,2.39-.21.75-.73,1.46-1.47,1.66.16.05.23.25.27.42.22,1.01.18,2.14-.02,3.15-.26,1.33-.99,2.13-2.12,2.82.26-.04.48.18.66.38,1.11,1.32,2.07,2.77,2.98,4.25.97,1.59,1.18,3.84,1.22,5.69.04,1.96-.23,3.93-.84,5.79-.04.1-.07.21-.16.28-.11.07-.25.05-.38.03-.62-.11-1.27-.22-1.9-.14-2.1.26-2.31,2.37-2.33,4.12l-3.02-3.33s-1.73,5.88-7.36,6.67c0,0,4.88.84,8.61-4.27.23.41.46.83.72,1.23.7,1.11,1.6,2.14,2.56,3.05.95.89,2.01,1.96,3.17,2.58.1.05.21.09.33.14-7.82,4.25-13.14,9.27-15.89,12.23-.29-.18-.58-.36-.87-.54.09-.69.15-1.39.16-2.11v-.02c0-1.29-.13-2.62-.38-3.87.42.42.87.8,1.35,1.14l.84.6.26-1c.5-1.95.21-4.49-.76-6.97v-.02c-.93-2.2-2.44-4.21-4.23-5.71,1.25-1.85,2.13-4.35,2.46-7.13v-.02c.1-1.06.1-2.13.03-3.18,1.46,1.89,3.36,3.37,5.46,4.1l.95.33v-1c0-2.13-.9-4.61-2.47-6.81h0c-1.29-1.73-3.06-3.18-4.96-4.13.97-2.01,1.5-4.59,1.46-7.36v-.02c-.03-.79-.11-1.6-.24-2.4,1.01,1.15,2.18,2.1,3.48,2.74l.9.45.12-.99c.26-2.11-.33-4.68-1.63-7.06h0c-1.13-1.99-2.84-3.74-4.73-4.93.13-1.74-.03-3.65-.5-5.57v-.02c-.14-.56-.35-1.11-.55-1.65,1.59.96,3.33,1.54,5.08,1.65l.97.05-.24-.95c-.53-2.06-2.02-4.21-4.09-5.92h0c-1.67-1.32-3.74-2.24-5.8-2.64-.15-2.13-.87-4.48-2.07-6.7v-.02c-1.52-2.67-3.88-5.05-6.46-6.52l-.34-.19c-.09-2.35-.92-4.99-2.38-7.44h0c-.75-1.22-1.69-2.35-2.73-3.36.35.12.64.23.83.28.82.21,2.78,2.27,3.5,2.96.28.27.79.46,1.32.59l.13,2.91s1.69-2.78,3.47-2.97c0,0,4.22,1.76,4.73,6.07.25,2.13.3,4.89.76,6.99.09.4.2.82.48,1.11.3.3.73.41,1.15.48,2.58.45,5.46.16,7.75-1.2,1.1-.65,2.37-1.62,2.44-2.99.09-1.76-.38-3.44-1.01-5.05-.39-1.03-.86-2.04-1.41-2.97-.29-.48-.6-.96-.96-1.39-.39-.5-.88-.87-1.3-1.32-.12-.13-.2-.23-.24-.32,2.05-.16,7.62-.18,10.88,3.75M540.98,239.3c1.54.86,2.97,2.1,4.05,3.53,1.11,1.55,1.86,3.29,2.11,4.86-2.24-1.12-4.15-3.18-5.25-5.72-.32-.82-.71-1.78-.9-2.66M536.62,174.97l-.03.46c-.03.53-.05,1.02-.16,1.48-.32,1.39.39,2.3,1.22,3.1.21.18.43.32.64.46.1.05.2.12.29.18,2.24,1.55,4.05,3.54,5.4,5.88.93,1.62,2.06,3.59,2.44,5.44.32,1.6-1.04,2.97-2.31,3.65-1.8.96-3.95,1.21-5.91.69-.21-.05-.42-.13-.57-.28-.26-.27-.26-.69-.24-1.05.03-.87.04-1.68-.03-2.54l-.1-1.14c-.03-.17-.04-.36-.06-.54v-.14c-.17-3.83-1.95-6.93-5.45-9.46-.64-.47-1.53-.97-2.68-.59-.26.08-.54.11-.82.14-.13,0-.25.03-.37.04-.58.05-.96-.06-1.37-.45-2.41-2.21-5.13-3.66-8.05-4.3,0,0-.05-.04-.1-.07.26-1.47.26-2.73-.2-4.16.37-.27.83-.38,1.22-.64.45-.29.84-.66,1.23-1.03.68-.62,1.45-1.24,2.35-1.29.42-.02.82.08,1.21.21.32.09.64.1.97.15.79.11,1.63.13,2.39-.16.48-.2.97-.52,1.49-.41.42.09.71.43,1.07.65.34.21.79.3,1.16.43.66.21,1.23-.03,1.72-.22.14-.06.29-.13.44-.17,2.25,1.25,3.29,3.12,3.18,5.69M525.89,165.21c1.6.68,3.26.06,3.26.06l.28-.13c1.08-.46,1.88-.69,2.62-.72.78-.03,1.48.18,1.93.58.34.31.58.73.68,1.01.06.18.21.68.04,1.16-.12.18-.27.35-.43.49-.71.64-1.75.78-2.58.32-.65-.35-1.15-1.02-1.87-1.18-.78-.16-1.19.39-1.82.68-1.05.47-2.23-.09-3.37-.22-2.21-.27-3.7,1.07-5.1,2.62-.51.57-1.29,1.21-2.11,1.03-.36-.08-.6-.36-.87-.57-.39-.31-.8-.48-1.29-.54-.88-.1-1.78.08-2.62-.26-1.35-.54-1.15-2.03-.39-3.01.98-1.29,3.48-.4,4.61.34.23.15.46.32.73.34.32,0,.57-.12.81-.31l.5-.46c3.32-4.95,5.4-1.91,7-1.23M501.31,215.88c-.47.19-.91.57-1.3,1.19-.11-.19-.24-.43-.39-.75l-.1-.24c-.35-.82-.87-2.07-2.39-2.8-.2-.17-.46-1.02-.57-1.43-.1-.36-.4-1.42-1.46-1.92-.37-.18-.91-.32-1.62-.17-1.37-.43-2.69-.29-3.89.4-.41-.25-.96-.46-1.63-.4-.84.07-1.43.54-1.82.97l-.08-.21c-.35-.77-1.08-1.29-1.92-1.35-.84-.07-1.64.33-2.11,1.04l-.22.35c-.07.13-.19.31-.26.41-1.56.63-2.43,1.79-3.13,2.72l-.21.29c-.36.47-.59.6-.6.62-.05-.02-.31-.15-.71-.7-.19-.27-.78-1.06-1.84-1.15-.48-.04-1.2.05-1.91.76-.58.56-.94.69-1,.7-.61-.22-1.56-2.71-1.51-4.94.03-.49.08-1.79-1.03-2.52-.66-.44-1.44-.48-2.33-.13-.42-.69-1.04-1.13-1.79-1.28-1.57-.29-2.92.86-3.89,1.7-.18.15-.34.29-.4.34l-.96.61c-1.56,1.01-3.04,1.96-4.59,2.41-.04-.02-.08-.04-.12-.04-.81-.31-1.81-.52-3.02.34-.27.16-.67.45-1.18.8-1.79,1.26-3.21,2.18-4.27,2.76-.47.26-1.07.05-1.26-.46-.14-.38-.41-.77-.9-1.04-1.29-.72-2.47.21-2.92.55l-.6.43c-2.83,2.01-5.75,4.09-8.93,5.3-.08-.21-.19-.46-.35-.72l-.99-1.61-1.62.99c-1.47.91-2.88,1.93-4.25,2.91-2.53,1.83-4.91,3.55-7.76,4.66-.02,0-.04.02-.05.03-.1-.54-.11-1.39-.12-1.87v-.14c-.02-.9-.53-1.71-1.33-2.11-.8-.39-1.76-.31-2.47.21-.81.6-1.52,1.21-2.2,1.79-1.42,1.21-2.66,2.28-4.41,2.83-.04-.1-.09-.21-.12-.31-.16-.39-.3-.82-.46-1.23-.22-.55-.91-.72-1.38-.37-.35.26-.69.55-1.01.78-.78.55-1.55,1.15-2.33,1.76-1.39,1.08-2.72,2.13-4.16,2.92-.04-.72-.38-1.38-.98-1.82-.72-.53-1.7-.61-2.5-.21l-.94.43c-2.37,1.07-4.8,2.19-7.01,3.81-.03.02-.05.04-.07.05.19-.54.42-1.07.7-1.58.03-.04.04-.1.05-.15.24-.9.64-1.78.79-2.71.21-1.36-1.17-1.27-2.05-.71l-1.62,1.02s-.04.03-.05.04c-.33.25-.81.65-1.63,1.36-3.27,2.79-5.6,4.55-6.98,5.28.14-.32.38-.68.83-1.31.62-.92.47-2.13-.36-2.88-.83-.74-2.04-.76-2.98.04-2.38,2.28-4.9,3.79-7.57,5.39-1.3.79-2.66,1.61-4.04,2.54-.64.43-1.38.84-2.01,1.13.71-2.16,2.38-4,4.14-5.96,6-6.63,13.17-12.65,20.11-18.47,2.67-2.23,5.43-4.55,8.07-6.85,17.73-15.49,36.13-29.57,56.22-43.01,17.16-11.49,34.49-17.74,51.54-18.58,5.43-.3,15.22-.04,19.65,5.17,2.13,2.52,2.87,6.87,2.06,11.29-2.04-.27-3.86,2.66-3.86,2.66-1.08-.55-2.28-.96-3.47-.79-2.04.3-3.03,2.28-2.53,4.22l.04.19c.08.28.15.54.24.81-.05.12-.13.21-.26.3-.1.07-.2.13-.29.21-.16.1-.31.2-.44.32-.27.22-.54.44-.8.64-.5.39-1.01.79-1.47,1.27-2.13,2.25-2.76,4.91-1.84,7.96.03.17.09.31.13.51,1,2.72.64-1.76,3.15-2.96,2.13-1.02,4.02-1.19,5.46-1.06-.86.7-1.67,1.47-2.46,2.39-2.55,2.96-3.98,6.93-3.99,10.83-.16.02-.31.07-.47.11h0c-3.3.76-6.24,3.71-6.97,7.15l-.2.9.92-.04c1.49-.07,2.82-.81,3.75-1.49-1.04,3.66-.86,7.54.47,10.9-2.37,2.1-3.97,4.99-4.58,8M505.59,214.12c-.11.45-.23.87-.36,1.25-.59,1.6-1.42,2.95-2.35,3.95-.12.07-.24.13-.38.17-.29-3.38.98-6.99,3.4-9.63-.23,1.25-.29,2.62-.33,3.82,0,.15,0,.29.02.44M505.42,195.12c-.87.83-1.86,1.43-2.78,1.72.84-2.18,2.73-4.04,4.86-4.8,0,.03-.03.04-.04.07-.34.47-.62,1.03-.88,1.61-.35.51-.73.98-1.16,1.4M506.83,197.15c.29-.9.63-1.93,1.04-2.84.14-.22.28-.44.41-.67.04.12.08.27.12.4.13.57.29,1.13.49,1.68.42,1.74.61,3.55.51,5.31-.18,2.23-.78,4.3-1.63,5.94l-.45.61-.1-.19c-1.23-3.14-1.4-6.87-.4-10.24M507.01,214.2c.33-1.46.48-2.9.41-4.21l.06-.08c.15.21.29.42.42.63.22.58.46,1.15.7,1.68.36.76.79,1.47,1.27,2.13.26.7.48,1.4.65,2.11.46,2.24.46,4.47.06,6.34l-.89-.18c-1.63-2.38-2.6-5.37-2.68-8.43M508.43,225.2c-.29,1.15-.37,2.45-.41,3.66-.16.64-.33,1.26-.52,1.79-.73,1.78-1.74,3.28-2.86,4.25-.27-3.5,1.17-7.22,3.79-9.83,0,.04,0,.09,0,.13M511.35,246.99c-.55,1.85-1.42,3.43-2.44,4.51-.59-3.46.49-7.3,2.85-10.14.28,1.89,0,4.06-.41,5.63M512.83,239.54s-.05-.07-.07-.1l-.37-.47-.13-.2c-1.81-2.53-2.87-5.8-2.84-9.13,0-.17,0-.37.02-.54.24-1.04.4-2.18.42-3.29,1.45,1.92,2.54,4.27,3.08,6.62.53,2.55.48,5.12-.1,7.12M514.57,252.18c-1.21-2.8-1.56-6.2-1.04-9.62,1.56,1.87,2.78,4.2,3.42,6.55.45,1.69.59,3.42.46,5.14l-.04.33-.13.98s0,.03,0,0c-.04.22-.05.45-.1.67-.92-.93-1.83-2.36-2.58-4.06M515.98,260.98c.36-.78.78-1.66,1.24-2.38.07.67.18,1.35.31,2.02.08,1.18.04,2.37-.16,3.52-.38,1.91-1.11,3.61-2.04,4.83-.67-2.54-.45-5.44.64-7.98M430.66,249.05c-1.12.41-2.29.97-3.54,1.57-4.28,2.04-9.12,4.36-15.39,2.61-4.6-1.54-7.38-3.61-8.73-4.82l8.17-.71-2.04-6.06c1.5,1.03,3.61,2.38,4.96,2.87l.41.13c1.97.63,4.21,1.36,10.34-1.12,3.24-1.32,5.97-1.83,8.35-1.54,2.84.35,4.88,2.13,6.85,3.85,1.33,1.17,2.79,2.45,3.79,3.88-3.93-1.99-8.77-2.27-13.16-.65M436.34,249.43c3.09-.04,6.11.85,8.55,2.6,1.26,4.58-1.63,8.97-2.49,10.14-7.39-.35-10.87-2.66-12.25-3.97,1.88-1.37,5.3-4.4,6.2-8.77M439.52,280.16c-6.3-4.05-8.89-15.47-9.73-20.36,3.58,2.91,14.4,6.85,38.71-.58,7.47-2.32,14.86-3.5,21.97-3.5,9.45,0,17.48,2.04,24.15,4.85-1.37,3.28-1.46,6.93-.23,10.05l.37.97.77-.71c1.49-1.38,2.65-3.67,3.21-6.3,1.2,2.72,3.06,5.06,5.34,6.63-1.32,1.38-2.5,3.41-3.23,5.67-.07.23-.11.47-.17.71-8.44-2.82-24.06-6.13-44.81-2.14-2.93.76-5.69,1.54-8.31,2.28-.21.06-.45.13-.66.18-12.5,3.53-21.54,6.06-27.36,2.27M449.27,302.75c-.44,12.14-.17,24,.79,35.51l-9.58-6.27c-1.75-11.47-2.88-23.71-3.43-37.24l12.22,8ZM450.5,343.09c3.14,31.35,11.46,60.07,24.71,85.08,5.46,10.32,11.85,19.98,18.81,28.69-1.29,1.58-3.32,3.92-6.04,6.55-3.96-3.99-7.75-8.13-11.34-12.47-6.85-8.24-13-17.17-18.17-26.54-5.22-9.49-9.52-19.41-12.81-29.62-6.48-19.85-9.31-40.69-10.22-61.54l15.06,9.86ZM394.76,267.08l25.81,16.89c.26,13.45.99,25.43,2.21,36.45l-29.39-19.23c.03-10.87.49-22.32,1.36-34.11M418.03,470.52c-.12-.12-12.65-12.43-22.96-39.81-9.38-24.94-18.73-67.79-10.6-130.83l30.88,20.21c.06,3.73.15,7.46.29,11.19.8,21.5,3.61,43.03,10.3,63.5,3.29,10.21,7.59,20.13,12.81,29.62,5.16,9.37,11.32,18.3,18.17,26.54,6.26,7.56,13.13,14.56,20.4,21.07-13.29,8.81-32.97,15.16-56.22,1.79-1.52-1.49-2.55-2.65-3.08-3.27M425.28,477.61c8.06,3.81,15.67,5.36,22.69,5.36,24.21,0,41.48-18.31,46.95-24.95,6.8,8.34,14.13,15.76,21.72,21.98-43.71,29.52-77.06,9.79-91.36-2.38M501.01,522.27c3.05-4.74,14.65-23.34,19.39-39.32,2.97,2.26,5.98,4.32,9.01,6.18l-4.79,37.23c-2.5-1.29-9.88-4.31-23.6-4.09M516.39,525.1c4.62,1.04,7.24,2.33,8.08,2.8,0,.11-.06.29-.25.52-.41.51-1.65,1.41-5.29,1.76-1.87.18-3.19.76-4.14,1.49l1.6-6.57ZM528.29,544.86c-.39.34-.72.71-.99,1.1l-.22-6.28c.66.19,1.14.45,1.49.71.97.72,1.09,1.57,1.09,1.6h.06c.04.43,0,1.65-1.43,2.88M529.84,539.58c-1.64-1.49-4.06-1.77-6.28-1.6-2.21.16-4.43.68-6.63.47-.85-.08-1.73-.29-2.34-.88-1-.98-.84-2.75.04-3.85.88-1.1,2.29-1.64,3.66-1.93,1.38-.29,2.8-.37,4.15-.79,1.35-.41,2.66-1.24,3.21-2.54.23-.54.3-1.15.38-1.74l1.99-15.65c.34-2.62.67-5.22,1-7.83l1-7.83c.17-1.3.33-2.61.5-3.91.04-.32.08-.65.12-.97.02-.14,0-.34.06-.47.06-.17.15-.05.3.04.57.33,1.14.65,1.71.98.29.16.57.33.86.49-1.24,16.01-2.49,32.02-3.74,48.02M552.69,545.96c-.28-.38-.6-.76-.99-1.1-1.09-.93-1.37-1.86-1.43-2.44l.05-.43s.13-.88,1.1-1.61c.34-.26.83-.52,1.49-.71l-.22,6.28ZM565.69,537.08c-.09.13-.18.25-.29.37-.74.78-1.96,1.03-3.06,1.05-2.09.06-4.15-.39-6.24-.51-2.09-.12-4.32.16-5.95,1.47-1.2-15.27-2.4-30.55-3.6-45.83-.05-.64-.1-1.31.17-1.9.46-1.01,1.65-1.43,2.72-1.73,1.4,11.54,2.79,23.08,4.2,34.62.24,1.96.57,4.11,2.04,5.42,1.8,1.59,4.41,1.31,6.6,1.89,2.03.54,4.94,2.73,3.4,5.14M565.2,531.67c-.96-.73-2.28-1.31-4.14-1.49-3.63-.35-4.88-1.25-5.29-1.76-.19-.23-.24-.41-.25-.52.84-.47,3.46-1.77,8.07-2.8l1.61,6.57ZM578.97,522.27c-13.69-.23-21.1,2.8-23.6,4.09l-4.8-37.26c2.9-1.8,5.91-3.87,8.99-6.2,4.72,15.98,16.35,34.63,19.4,39.37M539.99,488.46c-7.8-3.81-16.9-9.99-26.2-18.68.33-.88.33-1.94.33-2.88,0-1.42,0-2.75.93-3.36.15-.1.33-.17.5-.25.33-.14.7-.3,1.02-.6.35-.31.54-.7.71-1.03.12-.23.23-.45.34-.56.46-.45,1.18-.53,2.02-.62,1.03-.11,2.19-.22,3.02-1.1.82-.79,1.11-2,.69-2.95-.09-.2-.21-.38-.33-.56-.08-.12-.16-.22-.19-.26-.15-.54-.04-1.02.33-1.5.81-1.03,2.53-1.63,3.71-1.56.47,0,.98.08,1.51.16,1.35.19,2.88.4,4.13-.53.47-.35.81-.8,1.13-1.24.37-.51.7-.95,1.12-1.09.28-.08.65-.07,1.04-.06.77.02,1.71.04,2.32-.77l.08-.13c.21-.45.33-.52.88-.46l8.3.52c.51.04,1.04.06,1.4.29.24.15.45.42.67.71.26.33.54.7.96.98.9.63,2.21.64,3.56.07.35-.15.69-.32,1.03-.5.54-.28,1.07-.55,1.67-.7,1.01-.33,2.64.29,3.37,1.27.41.57.42,1.11.11,1.54-.1.1-.21.17-.32.24-.33.22-.78.53-.94,1.09-.28.96.52,1.81,1.44,2.14l.32.12c.37.12.72.24.79.33.35.88-.12,1.71-.95,2.96-.54.83-1.09,1.68-1.22,2.63l-.02.1.02.09c.13,1.04,1.21,1.41,1.73,1.59.67.22,2.24.88,2.46,2.09.04.2.04.4.04.6,0,.41.02.88.21,1.33.12.3.3.54.46.75.1.13.2.26.26.38.1.74.33,1.35.69,1.83-8.92,8.1-17.64,13.91-25.15,17.56M563.32,479.92c7.17-5.87,14.58-13.17,21.77-21.98,5.41,6.6,22.72,25.02,47,25.02,7,0,14.58-1.54,22.62-5.32-14.48,12.24-47.84,31.74-91.39,2.28M684.9,430.72c-10.3,27.38-22.56,39.51-22.69,39.64-.55.63-1.65,1.87-3.28,3.46-23.13,13.29-42.72,7.07-56-1.67,7.25-6.5,14.08-13.47,20.31-20.99,6.84-8.24,13-17.17,18.17-26.54,5.22-9.49,9.52-19.41,12.81-29.62,6.69-20.47,9.49-42,10.3-63.5.14-3.84.23-7.69.3-11.54l30.66-20.07c8.14,63.04-1.21,105.89-10.6,130.83M709.53,296.36l-9.09-1.97,1.83-9.12,18.11-3.93-10.85,15.02Z"/>
    <path class="cls-2" d="M594.41,266.25c1,.07,2,.14,3,.23.55.05.92.15,1.15.29.42.24.61.66.56,1.25-.03.51-.06.99-.09,1.51-.02.35-.03.59-.02.71l.07.3c.52.04,1.03.12,1.54.18l.03-.2c-.17-.11-.3-.3-.33-.6-.04-.17-.03-.44,0-.76.03-.41.08-.82.11-1.21.05-.54,0-.91-.16-1.18-.17-.24-.44-.46-.79-.64.46-.16.82-.39,1.11-.71.29-.29.47-.73.54-1.27.14-1.03-.23-1.79-1.12-2.28-.47-.25-1.09-.41-1.86-.49-1.58-.13-3.13-.26-4.7-.36-.22,2.99-.42,6-.61,9,.43.02.85.05,1.28.09.1-1.29.2-2.59.28-3.87M594.75,262.16c1.12.08,2.21.17,3.32.27.46.04.82.15,1.09.29.49.29.68.74.63,1.38-.08.59-.32.98-.71,1.18-.4.19-.89.26-1.53.19-1.02-.1-2.03-.18-3.05-.24.09-1.04.18-2.05.25-3.07"/>
    <path class="cls-2" d="M609.67,270.11c.54-.68.91-1.47,1.12-2.43.28-1.2.17-2.26-.33-3.16-.55-1.01-1.52-1.65-2.88-1.88-1.36-.24-2.71-.46-4.05-.63-.47,2.97-.92,5.96-1.35,8.91,1.25.18,2.5.37,3.73.57,1.6.28,2.82-.18,3.76-1.38M603.61,270.07c.35-2.28.72-4.55,1.09-6.83.8.13,1.6.25,2.38.38,1.08.19,1.81.62,2.16,1.33.37.7.41,1.59.18,2.68-.05.29-.14.58-.29.92-.23.52-.5.96-.81,1.26-.42.38-.87.62-1.38.69-.29.03-.66,0-1.09-.07-.73-.11-1.49-.24-2.23-.35"/>
    <path class="cls-2" d="M618.48,273.25c-1.83-.52-3.67-1-5.53-1.43.24-.99.48-1.98.73-2.96,1.73.4,3.46.84,5.16,1.32.1-.34.2-.67.29-1.01-1.72-.48-3.46-.92-5.21-1.33.21-.88.44-1.77.66-2.66,1.94.46,3.86.95,5.76,1.49.11-.36.21-.71.33-1.06-2.35-.66-4.72-1.26-7.11-1.79-.71,2.92-1.4,5.85-2.07,8.78,2.24.49,4.46,1.05,6.67,1.68.1-.34.21-.69.3-1.03"/>
    <path class="cls-2" d="M620.92,275.09c.75-2.31,1.51-4.63,2.28-6.94.85,2.81,1.59,5.63,2.24,8.45.44.15.88.31,1.32.48,1.08-2.81,2.17-5.62,3.29-8.41-.4-.15-.8-.29-1.21-.45-.88,2.28-1.75,4.55-2.6,6.84-.64-2.82-1.38-5.64-2.21-8.46-.51-.16-1.02-.31-1.54-.47-.93,2.87-1.84,5.73-2.72,8.61.37.12.76.23,1.14.35"/>
    <path class="cls-2" d="M572.97,270.59c.43-.04.87-.1,1.29-.14-.12-1.21-.23-2.41-.35-3.62,1.07-1.91,2.21-3.8,3.39-5.69-.54.04-1.08.08-1.63.13-.88,1.52-1.73,3.05-2.55,4.59-1.09-1.34-2.21-2.66-3.36-3.96-.55.07-1.08.14-1.63.22,1.53,1.59,3,3.21,4.43,4.86.13,1.21.25,2.41.38,3.62"/>
    <path class="cls-2" d="M586.51,270.11c1.56,0,2.77-.48,3.65-1.5.76-.87,1.18-1.96,1.26-3.31.06-1.24-.2-2.27-.83-3.1-.8-1.04-2.12-1.61-3.93-1.62-1.73,0-3.05.58-3.91,1.72-.67.89-.96,1.95-.95,3.15.04,1.36.47,2.47,1.23,3.32.87.89,2.02,1.33,3.47,1.33M584.14,262.65c.66-.64,1.53-.98,2.58-.97,1.08,0,1.92.33,2.51.99.61.68.88,1.53.82,2.58-.04,1.01-.34,1.88-.88,2.64-.54.77-1.36,1.13-2.5,1.12-1.2,0-2.07-.33-2.63-1-.54-.68-.84-1.51-.86-2.51,0-1.24.3-2.2.96-2.85"/>
    <path class="cls-2" d="M446.15,277.29c-.95-2.57-1.91-5.13-2.91-7.69-.44.15-.88.3-1.31.46,1.16,2.88,2.3,5.79,3.38,8.7,1.93-.7,3.88-1.34,5.84-1.94-.12-.35-.22-.71-.34-1.05-1.57.47-3.13.98-4.66,1.52"/>
    <path class="cls-2" d="M450.04,267.71c.98,2.96,1.93,5.91,2.84,8.88.42-.13.84-.24,1.27-.37-.88-2.97-1.8-5.95-2.75-8.91-.45.13-.9.26-1.36.39"/>
    <path class="cls-2" d="M461.81,269.57c-.29-.19-.72-.3-1.27-.37.3-.23.53-.46.65-.7.29-.45.36-.94.21-1.51-.11-.49-.37-.9-.75-1.22-.65-.53-1.59-.65-2.78-.39-1.45.33-2.89.7-4.33,1.07.91,2.97,1.78,5.97,2.62,8.96,1.29-.35,2.63-.67,3.95-.98,1.26-.27,2.09-.82,2.5-1.65.29-.54.37-1.11.23-1.71-.16-.7-.5-1.21-1.04-1.49M455.98,269.89c-.26-.92-.53-1.85-.8-2.76.8-.21,1.62-.41,2.43-.59.59-.13,1.05-.19,1.38-.14.59.1.96.44,1.12,1.02.13.6-.03,1.05-.44,1.38-.29.22-.71.38-1.27.52-.81.19-1.61.37-2.41.57M461.43,272.35c-.23.5-.74.85-1.53,1.02-.95.23-1.87.45-2.79.68-.28-1.07-.57-2.11-.87-3.16.88-.22,1.74-.44,2.62-.63.54-.13,1.02-.18,1.38-.12.69.11,1.12.48,1.27,1.15.09.38.05.75-.09,1.06"/>
    <path class="cls-2" d="M471.93,270.61c-1.99.26-3.96.55-5.91.9-.21-1.04-.41-2.06-.63-3.1,1.83-.32,3.66-.61,5.51-.86-.05-.35-.12-.71-.17-1.06-1.86.25-3.71.54-5.55.87-.2-.93-.38-1.86-.58-2.78,2.03-.36,4.07-.67,6.13-.94-.07-.38-.12-.76-.2-1.13-2.53.33-5.04.73-7.54,1.2.69,3.04,1.33,6.08,1.95,9.12,2.36-.44,4.73-.81,7.13-1.12-.05-.37-.11-.73-.16-1.1"/>
    <path class="cls-2" d="M475.87,271.04c-.16-1.3-.32-2.63-.49-3.96,1.03-.1,2.07-.2,3.13-.29.55-.04.96-.02,1.25.07.48.19.76.58.83,1.18.09.52.15,1.03.22,1.54.05.36.08.6.12.72l.13.3c.54-.04,1.1-.07,1.64-.09v-.21c-.23-.06-.39-.25-.49-.54-.06-.18-.12-.44-.14-.79-.04-.41-.11-.83-.15-1.24-.05-.54-.2-.93-.42-1.14-.22-.22-.55-.41-.96-.54.44-.23.76-.54.99-.91.22-.37.33-.83.26-1.4-.09-1.04-.63-1.76-1.67-2.1-.55-.17-1.22-.22-2.03-.16-1.63.13-3.25.29-4.86.48.47,3.06.9,6.14,1.3,9.21.43-.04.87-.08,1.32-.14M478.26,262.56c.5-.04.88,0,1.19.11.56.2.88.64.95,1.3.06.61-.09,1.05-.45,1.3-.37.27-.87.42-1.51.47-1.08.08-2.14.18-3.2.29-.13-1.06-.28-2.11-.43-3.17,1.14-.12,2.3-.22,3.45-.31"/>
    <path class="cls-2" d="M485.75,262.12c.15,2.73.28,5.46.38,8.2.46,0,.91-.02,1.37-.02-.07-2.73-.17-5.46-.29-8.21,1.19,0,2.38,0,3.58,0,0-.37-.02-.74-.03-1.11-2.9-.04-5.79,0-8.65.14.03.37.06.73.09,1.11,1.18-.06,2.37-.1,3.55-.13"/>
    <path class="cls-2" d="M491.47,270.26c.37-.93.74-1.85,1.12-2.77,1.36.04,2.7.12,4.06.19.31.96.61,1.9.91,2.86.49.04.99.08,1.5.11-1.04-3.2-2.2-6.38-3.46-9.56-.54-.02-1.09-.04-1.63-.06-1.35,3.04-2.65,6.12-3.88,9.22.45,0,.92.02,1.38.03M494.71,262.43c.54,1.4,1.04,2.79,1.51,4.21-1.06-.07-2.15-.12-3.24-.15.57-1.35,1.15-2.71,1.73-4.05"/>
    <path class="cls-2" d="M508.36,269.61c.51-.75.84-1.6.96-2.58.16-1.27-.08-2.38-.71-3.3-.73-1.03-1.84-1.63-3.31-1.82-1.47-.17-2.94-.33-4.39-.46-.15,3.11-.33,6.22-.55,9.3,1.36.13,2.71.28,4.08.45,1.73.21,3.04-.31,3.93-1.59M501.8,269.82c.19-2.38.37-4.76.51-7.15.87.09,1.72.18,2.58.29,1.18.14,2.01.57,2.46,1.29.46.71.64,1.64.5,2.79-.04.29-.1.62-.21.95-.19.57-.44,1.03-.76,1.36-.4.42-.87.68-1.44.78-.3.04-.7.04-1.15-.02-.83-.09-1.65-.19-2.48-.27"/>
    <path class="cls-2" d="M550.31,432.5h-.15s0-.84,0-.84h-1.34v-2.31h2.55v-6.02h-1.99s-.56,0-.56,0v-1.77c.03-.47-.19-.89-.57-1.13-.38-.24-.88-.25-1.28-.03-.39.22-.63.64-.62,1.12v1.8h-4.3v-1.8c0-.46-.22-.88-.63-1.11-.4-.23-.91-.22-1.29.02-.38.22-.59.64-.57,1.09v1.8h-4.27v-1.8c0-.46-.23-.88-.63-1.11-.4-.23-.91-.22-1.29.02-.38.22-.59.64-.57,1.09v1.8h-2.54v6.03h2.54v2.31h-1.71v.85h-.16s-1.7-2.15-1.7-2.15h-6.44l2.92,4.3,3.59,2.33,11.3.09h.04l11.3-.09,3.59-2.33,2.92-4.3h-6.44l-1.71,2.14ZM545.65,424.75h4.3v3.17h-4.3v-3.17ZM546.36,429.35v2.31h-1.65v.96l-1.58.04v-.99h-1.07v-2.31h4.3ZM538.64,424.75h.46c.98,0,1.47-.33,1.71-.51.22.18.71.51,1.71.51h.46v3.17h-4.33v-3.17ZM539.56,429.35v2.31h-1.46v.99l-1.57-.04v-.96h-1.24v-2.31h4.27ZM531.67,427.92v-3.17h4.3v3.17h-4.3ZM555.76,431.79l-1.32,1.94-2.9,1.83-10.92.09-10.91-.09-2.9-1.83-1.32-1.94h3.05l1.69,2.13,2.28.05v-.88h2.62v.92l4.42.1v-1.02h2.17v1.02l4.42-.1v-.92h2.62v.88l2.28-.05,1.69-2.13h3.05Z"/>
    <path class="cls-2" d="M550.31,472.73h-.15s0-.84,0-.84h-1.34v-2.31h2.55v-6.02h-1.99s-.56,0-.56,0v-1.77c.03-.47-.19-.89-.57-1.13-.38-.24-.88-.25-1.28-.03-.39.22-.63.64-.62,1.12v1.8h-4.3v-1.8c0-.46-.22-.88-.63-1.11-.4-.23-.91-.22-1.29.02-.38.22-.59.64-.57,1.09v1.8h-4.27v-1.8c0-.46-.23-.88-.63-1.11-.4-.23-.91-.22-1.29.02-.38.22-.59.64-.57,1.09v1.8h-2.54v6.03h2.54v2.31h-1.71v.85h-.16s-1.7-2.15-1.7-2.15h-6.44l2.92,4.3,3.59,2.33,11.3.09h.04l11.3-.09,3.59-2.33,2.92-4.3h-6.44l-1.71,2.14ZM545.65,464.97h4.3v3.17h-4.3v-3.17ZM546.36,469.57v2.31h-1.65v.96l-1.58.04v-.99h-1.07v-2.31h4.3ZM538.64,464.97h.46c.98,0,1.47-.33,1.71-.51.22.18.71.51,1.71.51h.46v3.17h-4.33v-3.17ZM539.56,469.57v2.31h-1.46v.99l-1.57-.04v-.96h-1.24v-2.31h4.27ZM531.67,468.14v-3.17h4.3v3.17h-4.3ZM555.76,472.01l-1.32,1.94-2.9,1.83-10.92.09-10.91-.09-2.9-1.83-1.32-1.94h3.05l1.69,2.13,2.28.05v-.88h2.62v.92l4.42.1v-1.02h2.17v1.02l4.42-.1v-.92h2.62v.88l2.28-.05,1.69-2.13h3.05Z"/>
    <path class="cls-2" d="M517.25,255.58h0c-.03-.06-.02-.03,0,0"/>
  </g>
  <g>
    <path class="cls-1" d="M332.21,811.35c-25.89,0-45.66-6.74-59.31-20.22-13.66-13.48-20.49-33.43-20.49-59.85v-111.39h34.28v111.13c0,16.96,3.88,29.68,11.65,38.16,7.77,8.48,19.05,12.72,33.87,12.72s26.06-4.24,33.74-12.72c7.67-8.48,11.51-21.2,11.51-38.16v-111.13h34.01v111.39c0,26.42-6.69,46.37-20.08,59.85-13.39,13.48-33.12,20.22-59.18,20.22Z"/>
    <path class="cls-1" d="M451.37,808.67v-188.78h81.94c13.92,0,25.71,2.32,35.35,6.96,9.64,4.64,16.96,11.34,21.96,20.08,5,8.75,7.5,19.37,7.5,31.87s-2.5,22.89-7.5,31.73c-5,8.84-12.32,15.62-21.96,20.35-9.64,4.73-21.42,7.1-35.35,7.1h-47.66v70.69h-34.27ZM485.64,710.93h42.31c12.14,0,21.33-2.72,27.58-8.17,6.25-5.44,9.37-13.43,9.37-23.97s-3.12-18.48-9.37-23.83c-6.25-5.36-15.44-8.03-27.58-8.03h-42.31v64Z"/>
    <path class="cls-1" d="M625.96,808.67v-188.78h34.28v188.78h-34.28Z"/>
    <path class="cls-1" d="M746.72,808.67v-160.13h-64.8v-28.65h163.88v28.65h-64.8v160.13h-34.27Z"/>
  </g>
  <g>
    <rect class="cls-3" x="347.2" y="904.05" width="192.88" height="33.44"/>
    <rect class="cls-5" x="540.08" y="904.06" width="96.35" height="33.43"/>
    <rect class="cls-4" x="636.44" y="904.06" width="96.35" height="33.43"/>
  </g>
</svg>