<svg xmlns="http://www.w3.org/2000/svg" width="218" height="76" viewBox="0 0 218 76" fill="none"><g clip-path="url(#clip0_1002_3927)"><path d="M126.93 42.2194C127.55 41.8394 128.24 41.6494 128.98 41.6494C130.1 41.6494 131.11 42.0094 132.01 42.7394C132.91 43.4694 133.36 44.3794 133.36 45.4894C133.36 46.0294 133.22 46.5794 132.94 47.1494L120.62 72.9794C120.22 73.8294 119.61 74.4894 118.8 74.9494C117.99 75.4094 117.12 75.6394 116.19 75.6394C115.26 75.6394 114.39 75.4094 113.58 74.9494C112.77 74.4894 112.16 73.8394 111.76 72.9794L99.4403 47.1494C99.1903 46.6494 99.0703 46.0894 99.0703 45.4894C99.0703 44.4194 99.5403 43.5094 100.47 42.7594C101.4 42.0194 102.45 41.6494 103.6 41.6494C104.35 41.6494 105.04 41.8394 105.68 42.2194C106.32 42.5994 106.81 43.1694 107.15 43.9294L116.34 64.1194L125.49 43.9294C125.83 43.1694 126.31 42.5994 126.94 42.2194" fill="#4E4D4D"></path><path d="M137.451 74.4694C136.691 73.6994 136.311 72.6394 136.311 71.3094V45.9194C136.311 44.6194 136.691 43.5894 137.451 42.8094C138.211 42.0394 139.251 41.6494 140.551 41.6494C141.851 41.6494 142.951 42.0394 143.721 42.8094C144.501 43.5894 144.891 44.6194 144.891 45.9194V71.3094C144.891 72.6394 144.501 73.6894 143.721 74.4694C142.941 75.2494 141.881 75.6294 140.551 75.6294C139.221 75.6294 138.211 75.2394 137.451 74.4694Z" fill="#4E4D4D"></path><path d="M151.66 74.5697C150.98 73.8597 150.63 72.8497 150.63 71.5297V45.7397C150.63 44.4197 150.97 43.4096 151.66 42.6996C152.34 41.9896 153.32 41.6396 154.6 41.6396H164.03C167.67 41.6396 170.8 42.3196 173.43 43.6896C176.06 45.0596 178.07 47.0096 179.47 49.5496C180.87 52.0896 181.57 55.1096 181.57 58.6096C181.57 62.1096 180.88 65.1897 179.49 67.7397C178.11 70.2896 176.1 72.2497 173.47 73.5997C170.84 74.9496 167.69 75.6196 164.02 75.6196H154.59C153.31 75.6196 152.33 75.2696 151.65 74.5597M163.41 68.4897C166.61 68.4897 169.02 67.6797 170.62 66.0597C172.22 64.4396 173.02 61.9597 173.02 58.6096C173.02 55.2596 172.22 52.7896 170.62 51.1896C169.02 49.5796 166.61 48.7796 163.41 48.7796H159.21V68.4897H163.41Z" fill="#4E4D4D"></path><path d="M217.42 71.8696C217.42 72.9196 217.01 73.8096 216.18 74.5396C215.36 75.2696 214.41 75.6297 213.36 75.6297C212.64 75.6297 211.99 75.4397 211.4 75.0597C210.81 74.6796 210.34 74.1096 210 73.3497L207.9 68.5396H192.78L190.63 73.3497C190.29 74.1096 189.81 74.6796 189.21 75.0597C188.6 75.4397 187.94 75.6297 187.23 75.6297C186.17 75.6297 185.21 75.2696 184.36 74.5396C183.5 73.8096 183.08 72.9196 183.08 71.8696C183.08 71.2996 183.22 70.7096 183.5 70.1096L195.82 44.3097C196.22 43.4497 196.82 42.7997 197.62 42.3297C198.41 41.8697 199.29 41.6396 200.26 41.6396C201.23 41.6396 202.06 41.8697 202.87 42.3297C203.68 42.7897 204.28 43.4497 204.69 44.3097L217.01 70.1096C217.29 70.7096 217.43 71.2996 217.43 71.8696M205.02 61.9697L200.35 51.3596L195.68 61.9697H205.02Z" fill="#4E4D4D"></path><path d="M103.14 16.3891C101.88 15.6991 100.91 14.6991 100.22 13.3991C99.5304 12.0991 99.1904 10.5891 99.1904 8.84906C99.1904 7.10906 99.5304 5.61906 100.22 4.31906C100.91 3.01906 101.88 2.02906 103.14 1.32906C104.4 0.629062 105.86 0.289062 107.54 0.289062C109.55 0.289062 111.31 0.819063 112.83 1.87906C113.1 2.06906 113.29 2.27906 113.41 2.49906C113.53 2.71906 113.59 3.00906 113.59 3.34906C113.59 3.83906 113.45 4.24906 113.18 4.58906C112.9 4.92906 112.57 5.09906 112.17 5.09906C111.93 5.09906 111.72 5.05906 111.53 4.98906C111.34 4.91906 111.12 4.80906 110.87 4.64906C110.32 4.31906 109.8 4.07906 109.31 3.93906C108.82 3.79906 108.31 3.72906 107.79 3.72906C106.38 3.72906 105.34 4.14906 104.65 4.99906C103.96 5.84906 103.62 7.12906 103.62 8.84906C103.62 10.5691 103.96 11.8791 104.65 12.7291C105.34 13.5791 106.39 13.9991 107.79 13.9991C108.26 13.9991 108.72 13.9291 109.17 13.7691C109.61 13.6191 110.18 13.3891 110.88 13.0691C111.21 12.8991 111.46 12.7791 111.62 12.7091C111.78 12.6491 111.97 12.6091 112.19 12.6091C112.59 12.6091 112.92 12.7791 113.2 13.1191C113.48 13.4591 113.61 13.8791 113.61 14.3591C113.61 14.6891 113.55 14.9691 113.43 15.1991C113.31 15.4291 113.12 15.6391 112.85 15.8291C111.33 16.8891 109.57 17.4191 107.56 17.4191C105.88 17.4191 104.42 17.0691 103.16 16.3791" fill="#4E4D4D"></path><path d="M117.63 16.3791C116.37 15.6791 115.4 14.6791 114.73 13.3891C114.05 12.0991 113.71 10.5891 113.71 8.84906C113.71 7.10906 114.05 5.59906 114.73 4.30906C115.41 3.01906 116.38 2.02906 117.63 1.32906C118.89 0.639062 120.37 0.289062 122.08 0.289062C123.79 0.289062 125.27 0.639062 126.53 1.32906C127.79 2.02906 128.75 3.01906 129.42 4.30906C130.09 5.59906 130.43 7.10906 130.43 8.84906C130.43 10.5891 130.09 12.0991 129.41 13.3891C128.73 14.6791 127.76 15.6791 126.51 16.3791C125.25 17.0791 123.78 17.4291 122.09 17.4291C120.4 17.4291 118.9 17.0791 117.64 16.3791M125.05 12.7491C125.76 11.8591 126.12 10.5591 126.12 8.84906C126.12 7.13906 125.76 5.84906 125.04 4.95906C124.32 4.06906 123.34 3.62906 122.09 3.62906C120.84 3.62906 119.84 4.06906 119.13 4.94906C118.42 5.82906 118.06 7.12906 118.06 8.84906C118.06 10.5691 118.42 11.8791 119.13 12.7591C119.84 13.6391 120.83 14.0891 122.09 14.0891C123.35 14.0891 124.34 13.6391 125.05 12.7491Z" fill="#4E4D4D"></path><path d="M132.34 16.8991C131.99 16.5491 131.82 16.0291 131.82 15.3591V2.45906C131.82 1.79906 132.01 1.26906 132.4 0.879063C132.79 0.489063 133.31 0.289062 133.98 0.289062C134.65 0.289062 135.2 0.489063 135.59 0.879063C135.98 1.26906 136.18 1.79906 136.18 2.45906V13.8291H141.63C143.01 13.8291 143.69 14.4291 143.69 15.6391C143.69 16.2491 143.52 16.6991 143.18 16.9891C142.84 17.2791 142.32 17.4191 141.63 17.4191H133.83C133.18 17.4191 132.68 17.2391 132.34 16.8891" fill="#4E4D4D"></path><path d="M146.731 16.3791C145.471 15.6791 144.501 14.6791 143.831 13.3891C143.151 12.0991 142.811 10.5891 142.811 8.84906C142.811 7.10906 143.151 5.59906 143.831 4.30906C144.511 3.01906 145.481 2.02906 146.731 1.32906C147.991 0.639062 149.471 0.289062 151.181 0.289062C152.891 0.289062 154.371 0.639062 155.631 1.32906C156.891 2.02906 157.851 3.01906 158.521 4.30906C159.191 5.59906 159.531 7.10906 159.531 8.84906C159.531 10.5891 159.191 12.0991 158.511 13.3891C157.831 14.6791 156.861 15.6791 155.611 16.3791C154.351 17.0791 152.881 17.4291 151.191 17.4291C149.501 17.4291 148.001 17.0791 146.741 16.3791M154.151 12.7491C154.861 11.8591 155.221 10.5591 155.221 8.84906C155.221 7.13906 154.861 5.84906 154.141 4.95906C153.421 4.06906 152.441 3.62906 151.191 3.62906C149.941 3.62906 148.941 4.06906 148.231 4.94906C147.521 5.82906 147.161 7.12906 147.161 8.84906C147.161 10.5691 147.521 11.8791 148.231 12.7591C148.941 13.6391 149.931 14.0891 151.191 14.0891C152.451 14.0891 153.441 13.6391 154.151 12.7491Z" fill="#4E4D4D"></path><path d="M177.23 0.889063C177.61 1.28906 177.8 1.80906 177.8 2.44906V15.4791C177.8 16.0891 177.63 16.5691 177.28 16.9191C176.93 17.2691 176.47 17.4491 175.9 17.4491C175.33 17.4491 174.89 17.2791 174.54 16.9191C174.18 16.5691 174.01 16.0891 174.01 15.4791V8.43906L171.31 13.4691C171.04 13.9791 170.76 14.3391 170.46 14.5591C170.16 14.7791 169.8 14.8791 169.39 14.8791C168.98 14.8791 168.62 14.7691 168.32 14.5591C168.02 14.3391 167.74 13.9791 167.47 13.4691L164.79 8.58906V15.4891C164.79 16.0791 164.61 16.5591 164.26 16.9091C163.9 17.2691 163.44 17.4491 162.87 17.4491C162.3 17.4491 161.86 17.2791 161.51 16.9191C161.15 16.5691 160.98 16.0891 160.98 15.4791V2.44906C160.98 1.80906 161.17 1.28906 161.56 0.889063C161.95 0.489063 162.44 0.289062 163.04 0.289062C163.47 0.289062 163.85 0.409062 164.2 0.659062C164.55 0.909063 164.84 1.25906 165.08 1.72906L169.44 10.0191L173.78 1.72906C174.27 0.769063 174.93 0.289062 175.77 0.289062C176.37 0.289062 176.86 0.489063 177.24 0.889063" fill="#4E4D4D"></path><path d="M193.17 10.0695C193.69 10.7895 193.95 11.6795 193.95 12.7395C193.95 13.6795 193.71 14.4995 193.23 15.2095C192.75 15.9195 192.06 16.4595 191.17 16.8495C190.28 17.2395 189.23 17.4295 188.03 17.4295H181.72C181.07 17.4295 180.57 17.2495 180.23 16.8895C179.88 16.5295 179.71 16.0195 179.71 15.3595V2.33953C179.71 1.66953 179.88 1.15953 180.23 0.809531C180.58 0.449531 181.08 0.269531 181.72 0.269531H187.79C189.54 0.269531 190.94 0.669531 191.97 1.47953C193.01 2.27953 193.52 3.36953 193.52 4.72953C193.52 5.60953 193.29 6.37953 192.83 7.05953C192.37 7.72953 191.73 8.22953 190.91 8.52953C191.89 8.83953 192.64 9.34953 193.16 10.0795M183.93 7.01953H187.04C187.86 7.01953 188.46 6.88953 188.84 6.62953C189.22 6.36953 189.41 5.95953 189.41 5.38953C189.41 4.78953 189.22 4.34953 188.84 4.06953C188.46 3.78953 187.86 3.65953 187.04 3.65953H183.93V7.01953ZM189.33 13.6295C189.7 13.3495 189.89 12.8795 189.89 12.2295C189.89 11.5795 189.7 11.1095 189.33 10.8295C188.96 10.5495 188.34 10.3995 187.47 10.3995H183.94V14.0495H187.47C188.34 14.0495 188.96 13.9095 189.33 13.6195" fill="#4E4D4D"></path><path d="M195.57 16.8495C195.18 16.4595 194.99 15.9295 194.99 15.2595V2.42953C194.99 1.76953 195.18 1.24953 195.57 0.859531C195.96 0.469531 196.48 0.269531 197.15 0.269531C197.82 0.269531 198.37 0.469531 198.76 0.859531C199.15 1.24953 199.35 1.76953 199.35 2.42953V15.2595C199.35 15.9295 199.15 16.4595 198.76 16.8495C198.36 17.2395 197.83 17.4395 197.15 17.4395C196.47 17.4395 195.96 17.2395 195.57 16.8495Z" fill="#4E4D4D"></path><path d="M217.42 15.5395C217.42 16.0695 217.21 16.5195 216.79 16.8895C216.37 17.2595 215.89 17.4395 215.36 17.4395C215 17.4395 214.66 17.3395 214.37 17.1495C214.07 16.9595 213.83 16.6695 213.66 16.2795L212.59 13.8495H204.91L203.82 16.2795C203.65 16.6595 203.4 16.9495 203.1 17.1495C202.79 17.3395 202.45 17.4395 202.09 17.4395C201.55 17.4395 201.07 17.2595 200.63 16.8895C200.2 16.5195 199.98 16.0695 199.98 15.5395C199.98 15.2495 200.05 14.9495 200.19 14.6495L206.45 1.61953C206.66 1.18953 206.96 0.849531 207.36 0.619531C207.76 0.389531 208.21 0.269531 208.7 0.269531C209.19 0.269531 209.62 0.389531 210.03 0.619531C210.44 0.849531 210.75 1.18953 210.95 1.61953L217.21 14.6495C217.35 14.9495 217.42 15.2495 217.42 15.5395ZM211.11 10.5395L208.74 5.17953L206.37 10.5395H211.11Z" fill="#4E4D4D"></path><path d="M99.63 35.4391C99.52 35.3191 99.46 35.1591 99.46 34.9691V25.1991C99.46 25.0091 99.52 24.8591 99.64 24.7491C99.76 24.6391 99.92 24.5791 100.11 24.5791H103.8C104.95 24.5791 105.85 24.8591 106.48 25.4191C107.12 25.9791 107.44 26.7691 107.44 27.7991C107.44 28.8291 107.12 29.6291 106.48 30.1991C105.84 30.7691 104.95 31.0591 103.8 31.0591H100.74V34.9791C100.74 35.1791 100.68 35.3291 100.57 35.4491C100.46 35.5691 100.3 35.6291 100.1 35.6291C99.9 35.6291 99.75 35.5691 99.63 35.4491M103.67 29.9891C105.34 29.9891 106.17 29.2591 106.17 27.7991C106.17 26.3391 105.33 25.6391 103.67 25.6391H100.73V29.9991H103.67V29.9891Z" fill="#4E4D4D"></path><path d="M110.93 34.9496C110.18 34.4996 109.6 33.8596 109.2 33.0296C108.8 32.1996 108.59 31.2296 108.59 30.0996C108.59 28.9696 108.79 27.9796 109.19 27.1496C109.59 26.3196 110.16 25.6796 110.92 25.2296C111.67 24.7896 112.56 24.5596 113.59 24.5596C114.62 24.5596 115.5 24.7796 116.26 25.2296C117.01 25.6796 117.59 26.3096 117.99 27.1496C118.39 27.9796 118.59 28.9596 118.59 30.0796C118.59 31.1996 118.39 32.1796 117.98 33.0196C117.58 33.8496 117 34.4896 116.25 34.9396C115.5 35.3896 114.61 35.6096 113.6 35.6096C112.59 35.6096 111.7 35.3896 110.95 34.9396M116.32 33.3796C116.97 32.6096 117.29 31.5096 117.29 30.0796C117.29 28.6496 116.97 27.5496 116.33 26.7896C115.69 26.0196 114.78 25.6396 113.61 25.6396C112.44 25.6396 111.54 26.0296 110.9 26.7996C110.25 27.5696 109.93 28.6696 109.93 30.0896C109.93 31.5096 110.25 32.6096 110.9 33.3896C111.55 34.1696 112.45 34.5496 113.61 34.5496C114.77 34.5496 115.68 34.1596 116.32 33.3896" fill="#4E4D4D"></path><path d="M122.62 35.4391C122.5 35.3191 122.44 35.1591 122.44 34.9691V25.6591H119.1C118.91 25.6591 118.77 25.6091 118.66 25.5191C118.56 25.4291 118.5 25.2891 118.5 25.1191C118.5 24.9491 118.55 24.8091 118.66 24.7191C118.76 24.6291 118.91 24.5791 119.1 24.5791H127.08C127.27 24.5791 127.41 24.6291 127.51 24.7191C127.61 24.8091 127.67 24.9491 127.67 25.1191C127.67 25.2891 127.62 25.4291 127.51 25.5191C127.41 25.6091 127.26 25.6591 127.08 25.6591H123.74V34.9691C123.74 35.1691 123.68 35.3191 123.57 35.4391C123.46 35.5591 123.3 35.6191 123.1 35.6191C122.9 35.6191 122.74 35.5591 122.63 35.4391" fill="#4E4D4D"></path><path d="M128.89 35.4491C128.77 35.3391 128.71 35.1791 128.71 34.9991V25.2091C128.71 25.0191 128.77 24.8691 128.89 24.7491C129.01 24.6291 129.17 24.5791 129.36 24.5791H135.18C135.37 24.5791 135.51 24.6291 135.62 24.7191C135.72 24.8091 135.77 24.9391 135.77 25.1091C135.77 25.2791 135.72 25.4091 135.62 25.4991C135.52 25.5891 135.37 25.6391 135.18 25.6391H129.97V29.4791H134.87C135.06 29.4791 135.2 29.5291 135.31 29.6191C135.41 29.7091 135.46 29.8391 135.46 30.0091C135.46 30.1791 135.41 30.3091 135.31 30.3991C135.21 30.4891 135.06 30.5391 134.87 30.5391H129.97V34.5491H135.18C135.37 34.5491 135.51 34.5891 135.62 34.6791C135.72 34.7691 135.77 34.8991 135.77 35.0791C135.77 35.2491 135.72 35.3791 135.62 35.4691C135.52 35.5591 135.37 35.6091 135.18 35.6091H129.36C129.16 35.6091 129 35.5491 128.89 35.4391" fill="#4E4D4D"></path><path d="M146.01 24.7493C146.11 24.8693 146.16 25.0293 146.16 25.2193V34.9693C146.16 35.1693 146.11 35.3193 146 35.4393C145.89 35.5593 145.74 35.6193 145.54 35.6193C145.34 35.6193 145.17 35.5293 145.03 35.3593L138.58 26.7793V34.9693C138.58 35.1693 138.53 35.3193 138.42 35.4393C138.31 35.5593 138.16 35.6193 137.98 35.6193C137.8 35.6193 137.65 35.5593 137.55 35.4393C137.45 35.3193 137.39 35.1593 137.39 34.9693V25.2193C137.39 25.0293 137.44 24.8693 137.55 24.7493C137.66 24.6293 137.81 24.5693 138.01 24.5693C138.22 24.5693 138.39 24.6593 138.54 24.8293L144.98 33.4093V25.2193C144.98 25.0293 145.03 24.8693 145.14 24.7493C145.25 24.6293 145.4 24.5693 145.58 24.5693C145.76 24.5693 145.91 24.6293 146.02 24.7493" fill="#4E4D4D"></path><path d="M150.44 34.9593C149.68 34.5193 149.1 33.8793 148.69 33.0393C148.28 32.2093 148.08 31.2193 148.08 30.0893C148.08 28.9593 148.28 27.9893 148.69 27.1593C149.1 26.3293 149.68 25.6893 150.44 25.2393C151.2 24.7993 152.09 24.5693 153.13 24.5693C153.82 24.5693 154.48 24.6793 155.1 24.8993C155.72 25.1193 156.25 25.4293 156.71 25.8393C156.88 25.9893 156.96 26.1693 156.96 26.3793C156.96 26.5193 156.92 26.6493 156.84 26.7593C156.76 26.8693 156.66 26.9193 156.54 26.9193C156.42 26.9193 156.27 26.8593 156.09 26.7493C155.56 26.3393 155.08 26.0493 154.65 25.8893C154.22 25.7293 153.73 25.6393 153.17 25.6393C151.97 25.6393 151.04 26.0293 150.39 26.7993C149.74 27.5693 149.42 28.6693 149.42 30.0893C149.42 31.5093 149.74 32.6193 150.39 33.3893C151.04 34.1593 151.96 34.5493 153.17 34.5493C153.72 34.5493 154.21 34.4693 154.65 34.2993C155.09 34.1393 155.57 33.8493 156.1 33.4393C156.28 33.3293 156.43 33.2693 156.55 33.2693C156.66 33.2693 156.76 33.3193 156.85 33.4193C156.93 33.5193 156.97 33.6493 156.97 33.7993C156.97 33.9993 156.89 34.1793 156.72 34.3393C156.26 34.7493 155.73 35.0593 155.11 35.2793C154.49 35.4993 153.84 35.6093 153.14 35.6093C152.1 35.6093 151.21 35.3893 150.45 34.9393" fill="#4E4D4D"></path><path d="M158.79 35.4491C158.68 35.3291 158.62 35.1691 158.62 34.9791V25.2291C158.62 25.0391 158.68 24.8791 158.79 24.7591C158.9 24.6391 159.06 24.5791 159.26 24.5791C159.46 24.5791 159.61 24.6391 159.73 24.7591C159.84 24.8791 159.9 25.0391 159.9 25.2291V34.9791C159.9 35.1791 159.84 35.3291 159.73 35.4491C159.62 35.5691 159.46 35.6291 159.26 35.6291C159.06 35.6291 158.91 35.5691 158.79 35.4491Z" fill="#4E4D4D"></path><path d="M171.72 35.0791C171.72 35.2291 171.66 35.3591 171.54 35.4691C171.42 35.5691 171.28 35.6191 171.11 35.6191C170.85 35.6191 170.67 35.4991 170.57 35.2491L169.47 32.7491H163.61L162.49 35.2491C162.39 35.4991 162.2 35.6191 161.95 35.6191C161.78 35.6191 161.64 35.5691 161.51 35.4591C161.39 35.3491 161.32 35.2191 161.32 35.0691C161.32 34.9891 161.34 34.8991 161.38 34.8191L165.83 25.0091C165.89 24.8691 165.99 24.7591 166.11 24.6891C166.23 24.6191 166.37 24.5791 166.51 24.5791C166.67 24.5791 166.81 24.6191 166.93 24.6991C167.05 24.7791 167.15 24.8791 167.21 25.0191L171.66 34.8291C171.7 34.9091 171.72 34.9991 171.72 35.0891M169 31.7091L166.53 26.1691L164.07 31.7091H169Z" fill="#4E4D4D"></path><path d="M176.93 35.4493C176.81 35.3393 176.75 35.1793 176.75 34.9993V25.1993C176.75 25.0093 176.81 24.8593 176.93 24.7393C177.05 24.6293 177.21 24.5693 177.41 24.5693H180.44C182.19 24.5693 183.55 25.0493 184.51 25.9993C185.47 26.9593 185.95 28.3193 185.95 30.0793C185.95 31.8393 185.47 33.2093 184.5 34.1693C183.54 35.1293 182.18 35.6093 180.44 35.6093H177.41C177.21 35.6093 177.05 35.5493 176.93 35.4393M180.36 34.5093C183.2 34.5093 184.62 33.0293 184.62 30.0693C184.62 27.1093 183.2 25.6493 180.36 25.6493H178.03V34.5093H180.36Z" fill="#4E4D4D"></path><path d="M188.04 35.4491C187.92 35.3391 187.86 35.1791 187.86 34.9991V25.1991C187.86 25.0091 187.92 24.8591 188.04 24.7491C188.16 24.6291 188.32 24.5791 188.51 24.5791H194.33C194.52 24.5791 194.66 24.6291 194.77 24.7191C194.87 24.8091 194.92 24.9491 194.92 25.1091C194.92 25.2691 194.87 25.4091 194.77 25.4991C194.67 25.5891 194.52 25.6391 194.33 25.6391H189.12V29.4791H194.02C194.21 29.4791 194.35 29.5291 194.46 29.6191C194.56 29.7091 194.61 29.8391 194.61 30.0091C194.61 30.1791 194.56 30.3091 194.46 30.3991C194.36 30.4891 194.21 30.5391 194.02 30.5391H189.12V34.5491H194.33C194.52 34.5491 194.66 34.5891 194.77 34.6791C194.87 34.7691 194.92 34.8991 194.92 35.0791C194.92 35.2591 194.87 35.3791 194.77 35.4691C194.67 35.5591 194.52 35.6091 194.33 35.6091H188.51C188.31 35.6091 188.15 35.5491 188.04 35.4391" fill="#4E4D4D"></path><path d="M200.32 35.4596C200.2 35.3496 200.14 35.2096 200.14 35.0296V25.2196C200.14 25.0196 200.2 24.8596 200.31 24.7396C200.42 24.6196 200.58 24.5596 200.78 24.5596C200.98 24.5596 201.13 24.6196 201.25 24.7396C201.36 24.8596 201.42 25.0196 201.42 25.2196V34.5296H206.44C206.63 34.5296 206.77 34.5796 206.88 34.6696C206.98 34.7596 207.03 34.8996 207.03 35.0696C207.03 35.2396 206.98 35.3796 206.88 35.4696C206.78 35.5596 206.63 35.6096 206.44 35.6096H200.76C200.58 35.6096 200.44 35.5596 200.32 35.4496" fill="#4E4D4D"></path><path d="M217.421 35.0791C217.421 35.2291 217.361 35.3591 217.241 35.4691C217.121 35.5691 216.981 35.6191 216.811 35.6191C216.551 35.6191 216.371 35.4991 216.271 35.2491L215.171 32.7491H209.311L208.191 35.2491C208.091 35.4991 207.901 35.6191 207.651 35.6191C207.481 35.6191 207.341 35.5691 207.211 35.4591C207.091 35.3491 207.021 35.2191 207.021 35.0691C207.021 34.9891 207.041 34.8991 207.081 34.8191L211.531 25.0091C211.591 24.8691 211.691 24.7591 211.811 24.6891C211.931 24.6191 212.071 24.5791 212.211 24.5791C212.371 24.5791 212.511 24.6191 212.631 24.6991C212.751 24.7791 212.851 24.8791 212.911 25.0191L217.361 34.8291C217.401 34.9091 217.421 34.9991 217.421 35.0891M214.701 31.7091L212.23 26.1691L209.771 31.7091H214.701Z" fill="#4E4D4D"></path><path d="M55.6105 37.8998C54.7905 49.5698 64.4105 57.3298 74.1505 62.8498C74.8805 63.2598 75.7805 62.7398 75.7805 61.8998V57.2998C75.7805 56.6598 75.3805 56.0798 74.7805 55.8498C68.2305 53.3598 63.4305 46.7498 63.7905 39.9998C64.1305 33.6698 68.6405 27.5998 74.8905 25.3298C75.4305 25.1298 75.7805 24.6198 75.7805 24.0498V19.9398C75.7805 19.2698 75.0305 18.8698 74.4805 19.2498C71.2205 21.4598 67.7405 23.3798 64.4405 25.5598C59.9405 28.5298 55.9905 32.4598 55.6105 37.9198" fill="#DC723F"></path><path d="M39.6598 33.2093C37.7898 36.4593 36.5798 40.2293 36.9798 43.9693C37.3698 47.5493 39.3598 50.8493 41.6898 53.6193C46.7598 59.6593 53.3798 64.7993 60.1198 69.0593C63.9998 71.5093 68.0498 73.6893 72.2498 75.5893C72.2898 75.6093 72.5098 75.6593 72.6898 75.6993C72.8198 75.7293 72.9598 75.7393 73.0998 75.7293L74.0698 75.6293C75.0198 75.6293 75.7798 74.8593 75.7798 73.9193C75.7798 73.1993 75.3698 72.5393 74.7298 72.2093L74.6898 72.1893C68.5098 69.0493 62.3798 65.5293 57.3898 60.7993C48.7998 52.6493 43.9698 39.7893 49.8498 28.9393C54.9298 19.5593 66.3098 16.6293 73.7998 9.5793C73.8798 9.4993 73.9598 9.4293 74.0498 9.3593C75.1798 8.4393 75.7898 7.0293 75.7898 5.5793V1.3193C75.7898 0.749297 75.3198 0.279297 74.7498 0.279297C74.2498 0.279297 73.7698 0.449297 73.3798 0.759297C67.8798 5.1793 62.4998 9.7393 57.2798 14.4593C51.0198 20.1193 43.8598 25.9193 39.6598 33.2093Z" fill="#DC723F"></path><path d="M32.5701 54.9795C27.2801 46.8695 27.7401 37.4695 32.4801 29.2295C38.2901 19.1195 48.7401 11.0295 57.0501 3.70953C58.0401 2.83953 59.0001 2.12953 60.0201 1.34953C60.4901 0.989531 60.2301 0.269531 59.6601 0.269531H12.4301C5.88008 0.269531 0.580078 5.57953 0.580078 12.1195V63.7795C0.580078 70.3195 5.88008 75.6295 12.4301 75.6295H53.5301C54.1201 75.6295 54.3601 74.8595 53.8701 74.5295C53.4101 74.2195 52.9601 73.9195 52.5001 73.5995C45.1001 68.4795 37.4601 62.4495 32.5801 54.9795" fill="#DC723F"></path><path d="M72.0898 39.8496C72.0998 39.7696 72.1198 39.6996 72.1398 39.6196C72.1498 39.4896 72.1498 39.4996 72.0898 39.8496Z" fill="#DC723F"></path><path d="M72.1301 41.4392C72.1201 41.3592 72.0901 41.2792 72.0801 41.1992C72.1201 41.5192 72.1301 41.5392 72.1301 41.4392Z" fill="#DC723F"></path><path d="M78.67 34.6793C81.58 35.8793 82.98 39.2092 81.78 42.1192C80.58 45.0392 77.25 46.4292 74.34 45.2292C71.42 44.0293 70.03 40.6993 71.23 37.7893C72.43 34.8693 75.76 33.4793 78.67 34.6793Z" fill="#DC723F"></path></g><defs><clipPath id="clip0_1002_3927"><rect width="216.84" height="75.46" fill="white" transform="translate(0.580078 0.269531)"></rect></clipPath></defs></svg>